<?xml version="1.0" encoding="UTF-8"?>
<svg version="1.1" xmlns="http://www.w3.org/2000/svg" width="500" height="500">
<path d="M0 0 C5.86831253 3.02584865 10.2421813 8.45392797 12.4375 14.58984375 C13.94369747 19.75012974 14.84491622 25.03652233 15.6875 30.33984375 C22.14758848 31.80250529 25.97936896 30.77490314 32.078125 28.33203125 C35.2822116 27.1137109 38.27598203 26.60741379 41.6875 26.33984375 C42.63625 26.23671875 43.585 26.13359375 44.5625 26.02734375 C52.9754176 26.86863551 61.03783817 32.05088418 66.44921875 38.41015625 C72.05067977 46.19523766 73.83011604 54.83269235 72.6875 64.33984375 C70.08809578 74.88552796 62.99235922 82.73370573 54.6875 89.33984375 C51.8092395 92.29384795 50.75069186 93.50255164 50.4375 97.65234375 C50.52 98.53921875 50.6025 99.42609375 50.6875 100.33984375 C51.23921875 100.59894531 51.7909375 100.85804688 52.359375 101.125 C64.52274918 107.47199559 72.79995431 116.76316 77.01171875 129.84375 C78.43899391 135.11559293 78.68267253 139.90029686 78.58984375 145.3359375 C78.6251686 147.62428538 78.6251686 147.62428538 79.6875 150.83984375 C82.7561663 162.43258312 81.23466428 172.1121487 75.609375 182.44921875 C73.82537235 185.13247477 72.13747945 187.25432405 69.6875 189.33984375 C69.0275 189.33984375 68.3675 189.33984375 67.6875 189.33984375 C67.6875 189.99984375 67.6875 190.65984375 67.6875 191.33984375 C65.96148621 192.15902017 64.2315353 192.96990391 62.5 193.77734375 C61.05560547 194.45603516 61.05560547 194.45603516 59.58203125 195.1484375 C51.4909073 198.47879216 41.58431064 198.77745035 33.375 195.71484375 C29.30323725 193.86765382 25.89250703 191.480222 22.4765625 188.609375 C20.54491855 187.23866695 19.0005912 186.76272166 16.6875 186.33984375 C16.45417969 186.8915625 16.22085938 187.44328125 15.98046875 188.01171875 C14.34730716 190.95239642 12.29410793 193.13061626 10 195.58984375 C6.93559485 198.89640735 3.91519763 202.21373564 1 205.65234375 C-5.35935583 212.93507209 -12.2593933 217.85787964 -21.3125 221.33984375 C-22.34375 221.85546875 -23.375 222.37109375 -24.4375 222.90234375 C-27.3125 224.33984375 -27.3125 224.33984375 -30.3125 225.33984375 C-29.9825 226.32984375 -29.6525 227.31984375 -29.3125 228.33984375 C-29.621875 229.30921875 -29.93125 230.27859375 -30.25 231.27734375 C-32.38768733 238.05150159 -31.75516704 245.48461738 -30.3125 252.33984375 C-29.96083085 254.92241408 -29.62596865 257.50273926 -29.3125 260.08984375 C-29.22492432 260.79923096 -29.13734863 261.50861816 -29.04711914 262.23950195 C-28.58590535 265.99927554 -28.15017449 269.76062194 -27.75 273.52734375 C-27.38949008 277.13482522 -27.38949008 277.13482522 -26.8125 279.83984375 C-26.19957626 282.90446243 -25.89164636 285.96789998 -25.5625 289.07421875 C-25.22041919 292.17432608 -24.7695436 295.25479945 -24.3125 298.33984375 C-24.0959375 299.97953125 -24.0959375 299.97953125 -23.875 301.65234375 C-22.82771328 308.51789005 -21.35108763 315.29402556 -19.8046875 322.0625 C-19.46667313 323.62648715 -19.16103013 325.19771403 -18.8828125 326.7734375 C-17.92339355 332.16806513 -16.40670205 336.89954784 -14.2578125 341.9375 C-13.34739248 344.25117071 -12.73161465 346.47973803 -12.1875 348.90234375 C-11.754375 350.60390625 -11.754375 350.60390625 -11.3125 352.33984375 C-10.6525 352.66984375 -9.9925 352.99984375 -9.3125 353.33984375 C-9.003125 354.12359375 -8.69375 354.90734375 -8.375 355.71484375 C-7.52773855 358.31815912 -7.52773855 358.31815912 -5.88671875 359.71875 C-4.02495596 361.6359499 -3.13940798 363.46322754 -2.0625 365.90234375 C-1.70671875 366.68738281 -1.3509375 367.47242188 -0.984375 368.28125 C-0.3125 370.33984375 -0.3125 370.33984375 -1.3125 372.33984375 C-0.6525 372.33984375 0.0075 372.33984375 0.6875 372.33984375 C1.30997104 378.87578964 0.74186034 382.94230059 -3.234375 388.265625 C-14.13939075 399.1501426 -31.54602108 399.7813559 -46.02929688 399.79882812 C-47.31888306 399.7924231 -47.31888306 399.7924231 -48.63452148 399.78588867 C-51.24347661 399.77736506 -53.85024293 399.80627694 -56.45898438 399.83789062 C-70.30338316 399.89627748 -84.37191689 398.82987764 -95.3125 389.33984375 C-100.08705479 384.44592509 -100.61551968 380.13057594 -100.5390625 373.40234375 C-100.06531269 369.08958686 -98.39437802 365.42172177 -95.3125 362.33984375 C-94.8175 361.10234375 -94.8175 361.10234375 -94.3125 359.83984375 C-93.3125 357.33984375 -93.3125 357.33984375 -91.3125 355.33984375 C-87.67370643 348.27511082 -84.43955416 341.00502062 -82.3125 333.33984375 C-82.08046875 332.50582031 -81.8484375 331.67179687 -81.609375 330.8125 C-77.86485462 315.97384213 -75.94307324 300.53801701 -74.3125 285.33984375 C-73.97916667 283.67317708 -73.64583333 282.00651042 -73.3125 280.33984375 C-73.04295614 278.04872097 -72.80360612 275.7552129 -72.5625 273.4609375 C-72.3125 271.33984375 -72.3125 271.33984375 -71.8125 268.90234375 C-71.15161393 265.51530266 -70.88567551 262.1173335 -70.5625 258.68359375 C-70.29674795 256.19216831 -69.80369091 253.79579831 -69.3125 251.33984375 C-67.86144473 240.84453985 -66.91875476 229.54202851 -70.3125 219.33984375 C-70.51617187 218.68242187 -70.71984375 218.025 -70.9296875 217.34765625 C-73.07707568 214.22969714 -76.2575841 212.92345829 -79.5625 211.27734375 C-80.21863281 210.93896484 -80.87476563 210.60058594 -81.55078125 210.25195312 C-83.46506824 209.26816945 -85.38684769 208.30116078 -87.3125 207.33984375 C-88.46234375 206.76363281 -89.6121875 206.18742188 -90.796875 205.59375 C-92.04210937 204.97306641 -92.04210937 204.97306641 -93.3125 204.33984375 C-93.3125 203.67984375 -93.3125 203.01984375 -93.3125 202.33984375 C-93.88613281 202.22640625 -94.45976562 202.11296875 -95.05078125 201.99609375 C-97.53284742 201.27590875 -99.31408653 200.20952359 -101.5 198.83984375 C-106.17959739 196.14246785 -109.95109615 195.5951487 -115.3125 195.33984375 C-115.77140625 196.05011719 -116.2303125 196.76039063 -116.703125 197.4921875 C-117.31671875 198.41128906 -117.9303125 199.33039063 -118.5625 200.27734375 C-119.16578125 201.19386719 -119.7690625 202.11039063 -120.390625 203.0546875 C-122.49194837 205.55321224 -123.26080143 205.72037502 -126.3125 206.33984375 C-126.6425 207.32984375 -126.9725 208.31984375 -127.3125 209.33984375 C-134.19345785 213.49622031 -141.69412935 214.52583254 -149.49609375 212.87890625 C-151.12009569 212.42797613 -152.72060388 211.89354675 -154.3125 211.33984375 C-154.3125 210.67984375 -154.3125 210.01984375 -154.3125 209.33984375 C-155.05242187 209.25605469 -155.79234375 209.17226563 -156.5546875 209.0859375 C-161.63539015 207.71141313 -164.4012773 203.53024005 -167.3125 199.33984375 C-170.44412901 192.69290934 -171.70879576 185.19363378 -169.65625 178.05859375 C-166.42294804 169.91959225 -161.22083839 163.67092208 -153.20703125 160.03125 C-151.24091717 159.31371971 -149.37403286 158.71117576 -147.3125 158.33984375 C-146.6525 158.66984375 -145.9925 158.99984375 -145.3125 159.33984375 C-144.9825 158.34984375 -144.6525 157.35984375 -144.3125 156.33984375 C-143.6525 156.33984375 -142.9925 156.33984375 -142.3125 156.33984375 C-142.6425 152.70984375 -142.9725 149.07984375 -143.3125 145.33984375 C-147.2725 145.66984375 -151.2325 145.99984375 -155.3125 146.33984375 C-155.3125 145.67984375 -155.3125 145.01984375 -155.3125 144.33984375 C-155.87066406 144.56027344 -156.42882812 144.78070313 -157.00390625 145.0078125 C-160.22034715 145.47041398 -161.54025149 144.37672917 -164.25 142.65234375 C-165.13042969 142.09417969 -166.01085937 141.53601563 -166.91796875 140.9609375 C-169.50132535 139.2120093 -171.91634691 137.33663799 -174.3125 135.33984375 C-175.26125 134.76234375 -176.21 134.18484375 -177.1875 133.58984375 C-183.79080218 128.83546618 -189.45231137 122.40430858 -191.3125 114.33984375 C-192.4986909 104.44120173 -192.65376115 94.52879172 -186.3125 86.33984375 C-182.17807372 81.52567621 -177.60655275 77.48582384 -172.5625 73.65234375 C-166.27803731 69.04841441 -166.27803731 69.04841441 -162.79296875 62.28125 C-162.29966849 58.48612666 -162.32141165 54.78210183 -162.4375 50.96484375 C-162.49015832 40.85444699 -158.53799675 32.17888762 -152.3125 24.33984375 C-147.82008853 20.33984375 -147.82008853 20.33984375 -145.3125 20.33984375 C-145.3125 19.67984375 -145.3125 19.01984375 -145.3125 18.33984375 C-134.40342381 12.38943856 -124.80075834 11.06722251 -112.6875 14.46484375 C-108.20297344 16.06703547 -104.90336338 18.79269072 -101.35546875 21.9140625 C-99.18102233 23.7213799 -99.18102233 23.7213799 -95.3125 23.33984375 C-95.209375 22.70046875 -95.10625 22.06109375 -95 21.40234375 C-94.773125 20.72171875 -94.54625 20.04109375 -94.3125 19.33984375 C-93.3225 19.00984375 -92.3325 18.67984375 -91.3125 18.33984375 C-90.8175 16.85484375 -90.8175 16.85484375 -90.3125 15.33984375 C-83.38439028 9.62057869 -76.05031006 6.91095759 -67.3125 5.33984375 C-66.28769531 5.13101563 -65.26289063 4.9221875 -64.20703125 4.70703125 C-61.39536252 4.35035532 -59.96628857 4.55174896 -57.3125 5.33984375 C-55.66715102 5.41400806 -54.021199 5.47535852 -52.375 5.52734375 C-45.30676866 6.08134026 -39.52700908 9.10908943 -33.3125 12.33984375 C-32.90257812 11.83453125 -32.49265625 11.32921875 -32.0703125 10.80859375 C-31.53148437 10.15890625 -30.99265625 9.50921875 -30.4375 8.83984375 C-29.90382813 8.19015625 -29.37015625 7.54046875 -28.8203125 6.87109375 C-28.32273437 6.36578125 -27.82515625 5.86046875 -27.3125 5.33984375 C-26.6525 5.33984375 -25.9925 5.33984375 -25.3125 5.33984375 C-25.3125 4.67984375 -25.3125 4.01984375 -25.3125 3.33984375 C-17.73945711 -1.60581691 -8.75869686 -2.50037123 0 0 Z M-9 174.40234375 C-11.35828599 177.39800433 -12.26581734 179.71671146 -13.3125 183.33984375 C-13.9725 183.99984375 -14.6325 184.65984375 -15.3125 185.33984375 C-15.3125 185.99984375 -15.3125 186.65984375 -15.3125 187.33984375 C-13.05813699 187.57200221 -13.05813699 187.57200221 -11.1875 185.27734375 C-10.75824219 184.82875 -10.32898438 184.38015625 -9.88671875 183.91796875 C-6.85868391 180.88242017 -3.56012521 178.13618605 -0.3125 175.33984375 C-1.15017007 173.11982039 -1.15017007 173.11982039 -3.5625 172.40234375 C-6.51327816 172.04790084 -6.51327816 172.04790084 -9 174.40234375 Z " fill="#78BE2C" transform="translate(305.3125,50.66015625)"/>
<path d="M0 0 C4.62 2.31 9.24 4.62 14 7 C12.68849515 10.93451456 10.84269924 11.83582833 7.5 14.25 C6.40853831 15.05035069 5.31739568 15.85113665 4.2265625 16.65234375 C3.16179687 17.42707031 2.09703125 18.20179688 1 19 C-0.7156544 20.26093224 -2.42498189 21.53056452 -4.125 22.8125 C-4.82882812 23.33457031 -5.53265625 23.85664063 -6.2578125 24.39453125 C-8.17274203 26.15918604 -9.0849085 27.57093514 -10 30 C-9.69694012 34.64691819 -8.09049067 37.89942215 -6 42 C-5.52181885 43.41009102 -5.06499084 44.82752963 -4.625 46.25 C-1.92684012 55.31676246 -1.92684012 55.31676246 3.8984375 62.265625 C9.70930331 64.29618777 16.09664364 63.26006619 21.7578125 61.1640625 C25.19770781 59.3781935 27.80116368 56.91863441 30.6015625 54.265625 C33.23670424 51.77640316 35.96228861 49.44186469 38.75 47.125 C39.63171875 46.38507813 40.5134375 45.64515625 41.421875 44.8828125 C43.96181676 43.02788533 45.95618317 41.78932041 49 41 C51.70199362 41.90937503 53.59921328 43.39947552 56 45 C56.51385563 47.82620599 56.34138082 49.49003606 54.734375 51.890625 C53.21930562 53.6998826 51.75564125 55.42174219 50 57 C49.34 57 48.68 57 48 57 C47.73960937 57.58394531 47.47921875 58.16789062 47.2109375 58.76953125 C42.86036109 66.78301231 33.59148277 73.21474811 26 78 C23.328125 78.671875 23.328125 78.671875 21 79 C14.25483099 81.89078672 10.88006037 85.26114007 8 92 C7.60225375 95.28374104 7.60225375 95.28374104 7.75 98.6875 C7.77707031 99.92242187 7.80414063 101.15734375 7.83203125 102.4296875 C8.01375368 106.29234575 8.30876533 110.11685468 8.72265625 113.9609375 C8.93879706 116.32935368 9.08609266 118.6648833 9.18359375 121.0390625 C9.49834582 128.51085697 10.1209285 135.27683877 12.17578125 142.50390625 C13.52745869 148.2373248 14.18130209 154.06817882 14.90966797 159.90893555 C15.85311882 167.37424133 17.07656277 174.73498914 19.0625 182 C20.06982364 185.87190025 20.44316778 189.72059928 20.75390625 193.703125 C20.98761351 195.88439275 21.41416992 197.88907509 22 200 C22.66 200 23.32 200 24 200 C24.99 203.3 25.98 206.6 27 210 C27.66 210 28.32 210 29 210 C29 211.32 29 212.64 29 214 C29.99 214.33 30.98 214.66 32 215 C35 219.33333333 35 219.33333333 35 222 C35.60199219 222.05285156 36.20398438 222.10570312 36.82421875 222.16015625 C39 223 39 223 40.51953125 225.43359375 C40.94621094 226.42488281 41.37289062 227.41617188 41.8125 228.4375 C42.25207031 229.42621094 42.69164062 230.41492188 43.14453125 231.43359375 C43.42683594 232.28050781 43.70914063 233.12742187 44 234 C43.67 234.66 43.34 235.32 43 236 C43.66 236 44.32 236 45 236 C45.62247104 242.53594589 45.05436034 246.60245684 41.078125 251.92578125 C30.17310925 262.81029885 12.76647892 263.44151215 -1.71679688 263.45898438 C-3.00638306 263.45257935 -3.00638306 263.45257935 -4.32202148 263.44604492 C-6.93097661 263.43752131 -9.53774293 263.46643319 -12.14648438 263.49804688 C-25.99088316 263.55643373 -40.05941689 262.49003389 -51 253 C-55.77455479 248.10608134 -56.30301968 243.79073219 -56.2265625 237.0625 C-55.75281269 232.74974311 -54.08187802 229.08187802 -51 226 C-50.67 225.175 -50.34 224.35 -50 223.5 C-49 221 -49 221 -47 219 C-43.36120643 211.93526707 -40.12705416 204.66517687 -38 197 C-37.76796875 196.16597656 -37.5359375 195.33195313 -37.296875 194.47265625 C-33.55235462 179.63399838 -31.63057324 164.19817326 -30 149 C-29.66666667 147.33333333 -29.33333333 145.66666667 -29 144 C-28.73045614 141.70887722 -28.49110612 139.41536915 -28.25 137.12109375 C-28 135 -28 135 -27.5 132.5625 C-27.00799939 130.04099689 -26.81549026 127.62268909 -26.625 125.0625 C-26.13576367 119.91787424 -24.80930437 116.08765889 -21.375 112.125 C-17.59532662 106.2836866 -19.0393099 97.63650169 -19.4375 91 C-19.51581055 89.55173828 -19.51581055 89.55173828 -19.59570312 88.07421875 C-19.72413636 85.7157175 -19.85903189 83.35777955 -20 81 C-20.66 81.99 -21.32 82.98 -22 84 C-22.67119549 82.5437455 -23.33681807 81.08492133 -24 79.625 C-24.37125 78.81289063 -24.7425 78.00078125 -25.125 77.1640625 C-26 75 -26 75 -26 73 C-26.556875 72.82984375 -27.11375 72.6596875 -27.6875 72.484375 C-33.09590609 70.76684063 -37.98062896 68.64657745 -43 66 C-43 65.34 -43 64.68 -43 64 C-43.86625 63.938125 -44.7325 63.87625 -45.625 63.8125 C-49.16946926 62.95920184 -50.7755754 61.66114926 -53.453125 59.2734375 C-59.18588482 54.55404431 -65.88393499 54.3731752 -73 54 C-73.36543085 49.49301947 -73.36543085 49.49301947 -71.78540039 47.36132812 C-66.35031019 43.21719262 -54.50212838 45.37031756 -48 46 C-43.96969049 46.99082431 -41.24718052 48.45031855 -38 51 C-36.58847656 52.10408203 -36.58847656 52.10408203 -35.1484375 53.23046875 C-33.25519131 54.76155043 -31.3839601 56.32053085 -29.54296875 57.9140625 C-27.06698524 60.07446331 -27.06698524 60.07446331 -24.19140625 61.546875 C-23.46824219 62.02640625 -22.74507812 62.5059375 -22 63 C-21.75 66.625 -21.75 66.625 -22 70 C-21.67 70.33 -21.34 70.66 -21 71 C-20.51906325 64.09321388 -21.13198434 58.82021376 -23.71875 52.41796875 C-25.44021974 47.82563332 -26.78115895 43.15208047 -28.125 38.4375 C-28.50519287 37.12579834 -28.50519287 37.12579834 -28.89306641 35.78759766 C-29.62829146 33.19950839 -30.31643379 30.6021511 -31 28 C-31.26248535 27.10958008 -31.5249707 26.21916016 -31.79541016 25.30175781 C-32.44953881 22.80114127 -32.95205256 20.58482911 -33 18 C-31.0078125 15.0546875 -31.0078125 15.0546875 -28.125 12.875 C-27.17882812 12.12992188 -26.23265625 11.38484375 -25.2578125 10.6171875 C-24.51273438 10.08351562 -23.76765625 9.54984375 -23 9 C-22.4121875 9.7734375 -22.4121875 9.7734375 -21.8125 10.5625 C-20.098291 12.22163026 -20.098291 12.22163026 -17.80078125 12.03515625 C-13.7328255 10.53165796 -10.61032879 8.06112283 -7.1875 5.4375 C-6.49462891 4.91736328 -5.80175781 4.39722656 -5.08789062 3.86132812 C-3.38604337 2.58200846 -1.69221036 1.29203986 0 0 Z " fill="#C28038" transform="translate(261,187)"/>
<path d="M0 0 C-1.59416995 4.84684856 -3.32250669 9.6312067 -5.09765625 14.4140625 C-6.73096981 19.09481391 -7.1188311 22.95586027 -7.09765625 27.953125 C-7.0962413 28.61334656 -7.09482635 29.27356812 -7.09336853 29.95379639 C-7.08779245 32.05257794 -7.07524447 34.15125095 -7.0625 36.25 C-7.0574819 37.67708179 -7.05291954 39.10416525 -7.04882812 40.53125 C-7.03783088 44.02086832 -7.0205828 47.51042356 -7 51 C-8.485 51.495 -8.485 51.495 -10 52 C-10.73323796 54.01508358 -10.73323796 54.01508358 -11 56 C-11.66 56 -12.32 56 -13 56 C-13.09369873 56.58628174 -13.18739746 57.17256348 -13.28393555 57.77661133 C-14.16596637 60.51532755 -15.35369464 61.6271951 -17.45703125 63.57421875 C-18.15763672 64.24259766 -18.85824219 64.91097656 -19.58007812 65.59960938 C-21.05237171 66.97658386 -22.52885523 68.34909386 -24.00976562 69.71679688 C-29.83307623 75.29502762 -32.64805722 80.60618598 -35 88.25 C-36.16194733 91.44535516 -37.67726708 93.53209628 -40 96 C-40.66 96 -41.32 96 -42 96 C-42.76029818 98.96584784 -43.43896176 101.93989764 -44.0625 104.9375 C-44.23910156 105.77152344 -44.41570312 106.60554688 -44.59765625 107.46484375 C-45.00340945 110.02148282 -45.06933538 112.41610144 -45 115 C-45.99 114.505 -45.99 114.505 -47 114 C-47 113.34 -47 112.68 -47 112 C-47.55872803 112.01571045 -48.11745605 112.0314209 -48.69311523 112.04760742 C-51.2744699 112.11074924 -53.8556613 112.14923704 -56.4375 112.1875 C-57.31599609 112.21263672 -58.19449219 112.23777344 -59.09960938 112.26367188 C-66.51639289 112.34577649 -72.94727411 111.33825813 -78.9375 106.75 C-81.93231104 102.75691861 -83 98.96737565 -83 94 C-84.98 94 -86.96 94 -89 94 C-89.33 92.68 -89.66 91.36 -90 90 C-91.32 90 -92.64 90 -94 90 C-95.02845149 69.01958955 -95.02845149 69.01958955 -86.98046875 59.6484375 C-83.33593677 55.83157214 -79.44789256 52.50289834 -75.25 49.3125 C-68.96553731 44.70857066 -68.96553731 44.70857066 -65.48046875 37.94140625 C-64.98716849 34.14628291 -65.00891165 30.44225808 -65.125 26.625 C-65.17765832 16.51460324 -61.22549675 7.83904387 -55 0 C-50.50758853 -4 -50.50758853 -4 -48 -4 C-48 -4.66 -48 -5.32 -48 -6 C-30.36460583 -15.61930591 -15.34009719 -12.0713662 0 0 Z " fill="#77C52A" transform="translate(208,75)"/>
<path d="M0 0 C0.99 0 1.98 0 3 0 C3.33 1.32 3.66 2.64 4 4 C5.98 4 7.96 4 10 4 C10.08636719 4.59167969 10.17273438 5.18335938 10.26171875 5.79296875 C11.24277063 11.31026049 12.26964104 14.5780382 17 18 C23.40752225 20.85507502 29.61943351 21.50921143 36.5625 21.6875 C37.93245117 21.73874023 37.93245117 21.73874023 39.33007812 21.79101562 C41.55326229 21.87249358 43.77610197 21.94195738 46 22 C46.495 22.99 46.495 22.99 47 24 C47.33 20.04 47.66 16.08 48 12 C48.33 12 48.66 12 49 12 C49.495 18.435 49.495 18.435 50 25 C50.309375 23.329375 50.61875 21.65875 50.9375 19.9375 C51.21787109 18.43509766 51.21787109 18.43509766 51.50390625 16.90234375 C51.89940438 14.58852399 52.16920045 12.33406804 52.375 10 C53 7 53 7 57 4 C57.495 11.425 57.495 11.425 58 19 C59.65 19.33 61.3 19.66 63 20 C63 20.66 63 21.32 63 22 C63.99 22.33 64.98 22.66 66 23 C66.6875 25.0625 66.6875 25.0625 67 27 C67.66 27 68.32 27 69 27 C69.495 29.475 69.495 29.475 70 32 C70.86625 32.268125 71.7325 32.53625 72.625 32.8125 C81.46067416 35.92134831 81.46067416 35.92134831 83 39 C86.5622231 39.11654436 90.12395342 39.1873639 93.6875 39.25 C94.69490234 39.28351563 95.70230469 39.31703125 96.74023438 39.3515625 C102.73774198 39.49644811 102.73774198 39.49644811 108.05859375 37.00390625 C108.69925781 36.34261719 109.33992188 35.68132812 110 35 C111.175625 34.8453125 111.175625 34.8453125 112.375 34.6875 C116.72057348 33.54937361 119.24759701 30.44204311 122 27 C122.98230921 25.22136546 123.94052926 23.42922744 124.875 21.625 C127.34468895 17.34071201 127.34468895 17.34071201 130.05859375 15.9296875 C134.98385086 14.99073034 137.92666943 16.22579977 142.0625 18.9375 C143.39243181 19.9355172 144.71147089 20.949072 146 22 C142.7988661 25.53228568 139.27976668 28.46748717 135.5 31.375 C134.5821875 32.08398438 133.664375 32.79296875 132.71875 33.5234375 C130 35 130 35 127.28125 34.8515625 C125 34 125 34 123 32 C121.42608776 33.0794264 119.89128962 34.21602334 118.375 35.375 C117.51648438 36.00148437 116.65796875 36.62796875 115.7734375 37.2734375 C113.70182048 40.45843459 113.85999894 41.04667947 114.546875 44.63671875 C115.0046658 46.43147055 115.49001543 48.2193759 116 50 C116.22445801 50.85754883 116.44891602 51.71509766 116.68017578 52.59863281 C117.37752544 55.22249145 118.11942117 57.82985209 118.875 60.4375 C119.13676025 61.35837402 119.39852051 62.27924805 119.66821289 63.22802734 C121.03854376 67.9760999 122.54451707 72.55413877 124.4375 77.125 C126.54475848 82.52755982 126.00070825 87.37645473 125 93 C124.34 92.67 123.68 92.34 123 92 C123.2784375 90.453125 123.2784375 90.453125 123.5625 88.875 C123.42246549 85.08086742 123.42246549 85.08086742 121.3828125 83.48046875 C119.84703147 82.4884963 118.28563531 81.53558378 116.70703125 80.61328125 C112.82466199 78.29954603 109.34251053 75.49960275 105.7734375 72.734375 C99.39508098 68.74565627 92.96917888 68.6864508 85.6875 68.75 C84.78193359 68.74226563 83.87636719 68.73453125 82.94335938 68.7265625 C81.64688477 68.73042969 81.64688477 68.73042969 80.32421875 68.734375 C79.1499231 68.73775879 79.1499231 68.73775879 77.9519043 68.74121094 C75.76473198 68.82991086 75.76473198 68.82991086 74 71 C73.35232207 73.57061311 73.35232207 73.57061311 73 76 C73.67804688 75.94199219 74.35609375 75.88398438 75.0546875 75.82421875 C82.52176133 75.46224149 87.7507954 76.86106785 94 81 C94.52207031 81.5259375 95.04414063 82.051875 95.58203125 82.59375 C97.70327598 84.69746379 100.17875694 85.18497423 103 86 C103 86.66 103 87.32 103 88 C103.763125 88.226875 104.52625 88.45375 105.3125 88.6875 C106.529375 89.120625 107.74625 89.55375 109 90 C109.89332031 90.29519531 110.78664063 90.59039062 111.70703125 90.89453125 C119.20861813 93.7364979 119.20861813 93.7364979 121.59765625 97.55078125 C122.5716415 100.01890875 123.37452767 102.42305399 124 105 C124.66 102.03 125.32 99.06 126 96 C126.33 96 126.66 96 127 96 C127.19827341 100.49959243 127.38168337 104.99967493 127.5625 109.5 C127.64661133 111.40265625 127.64661133 111.40265625 127.73242188 113.34375 C128.37784428 129.86656369 128.37784428 129.86656369 125.0625 135 C123 137 123 137 121 137 C121.0721875 136.42894531 121.144375 135.85789062 121.21875 135.26953125 C122.36778951 125.23139443 123.23888798 114.73665707 120 105 C119.69449219 104.01386719 119.69449219 104.01386719 119.3828125 103.0078125 C117.23542432 99.88985339 114.0549159 98.58361454 110.75 96.9375 C110.09386719 96.59912109 109.43773437 96.26074219 108.76171875 95.91210938 C106.84743176 94.9283257 104.92565231 93.96131703 103 93 C101.85015625 92.42378906 100.7003125 91.84757812 99.515625 91.25390625 C98.27039063 90.63322266 98.27039063 90.63322266 97 90 C97 89.34 97 88.68 97 88 C96.42636719 87.8865625 95.85273438 87.773125 95.26171875 87.65625 C92.77965258 86.936065 90.99841347 85.86967984 88.8125 84.5 C84.13290261 81.8026241 80.36140385 81.25530495 75 81 C74.54109375 81.71027344 74.0821875 82.42054688 73.609375 83.15234375 C72.99578125 84.07144531 72.3821875 84.99054688 71.75 85.9375 C71.14671875 86.85402344 70.5434375 87.77054687 69.921875 88.71484375 C67.82055163 91.21336849 67.05169857 91.38053127 64 92 C63.505 93.485 63.505 93.485 63 95 C56.11904215 99.15637656 48.61837065 100.18598879 40.81640625 98.5390625 C39.19240431 98.08813238 37.59189612 97.553703 36 97 C36 96.34 36 95.68 36 95 C34.89011719 94.87431641 34.89011719 94.87431641 33.7578125 94.74609375 C28.67710985 93.37156938 25.9112227 89.1903963 23 85 C19.86837099 78.35306559 18.60370424 70.85379003 20.65625 63.71875 C23.88955196 55.5797485 29.09166161 49.33107833 37.10546875 45.69140625 C39.07158283 44.97387596 40.93846714 44.37133201 43 44 C43.99 44.495 43.99 44.495 45 45 C45.33 44.01 45.66 43.02 46 42 C46.66 42 47.32 42 48 42 C47.67 38.37 47.34 34.74 47 31 C43.04 31.33 39.08 31.66 35 32 C35 31.34 35 30.68 35 30 C34.44183594 30.22042969 33.88367188 30.44085938 33.30859375 30.66796875 C30.09215285 31.13057023 28.77224851 30.03688542 26.0625 28.3125 C24.74185547 27.47525391 24.74185547 27.47525391 23.39453125 26.62109375 C20.81117465 24.87216555 18.39615309 22.99679424 16 21 C15.05125 20.4225 14.1025 19.845 13.125 19.25 C7.323 15.07256 2.64832512 9.69870472 0 3 C0 2.01 0 1.02 0 0 Z " fill="#5DA41A" transform="translate(115,165)"/>
<path d="M0 0 C4.49955528 2.32008319 7.65886914 6.39042035 10.6875 10.33984375 C7.9375 16.08984375 7.9375 16.08984375 5.6875 18.33984375 C5.48125 19.06171875 5.275 19.78359375 5.0625 20.52734375 C3.59776911 23.5233842 2.34987862 24.62385581 -0.1875 26.71484375 C-2.95400171 28.99783075 -4.86176496 30.89427418 -6.5 34.08984375 C-8.43281855 37.55558735 -9.73783621 38.74065206 -13.3125 40.33984375 C-13.9725 40.33984375 -14.6325 40.33984375 -15.3125 40.33984375 C-15.9725 39.67984375 -16.6325 39.01984375 -17.3125 38.33984375 C-18.3025 38.00984375 -19.2925 37.67984375 -20.3125 37.33984375 C-21.0625 35.40234375 -21.0625 35.40234375 -21.3125 33.33984375 C-20.8175 32.34984375 -20.8175 32.34984375 -20.3125 31.33984375 C-20.94478516 30.41751953 -20.94478516 30.41751953 -21.58984375 29.4765625 C-22.13769531 28.66832031 -22.68554688 27.86007813 -23.25 27.02734375 C-24.06791016 25.82658203 -24.06791016 25.82658203 -24.90234375 24.6015625 C-26.3125 22.33984375 -26.3125 22.33984375 -27.3125 19.33984375 C-29.27922915 18.18976065 -29.27922915 18.18976065 -31.3125 17.33984375 C-31.6425 17.00984375 -31.9725 16.67984375 -32.3125 16.33984375 C-33.405625 16.19546875 -34.49875 16.05109375 -35.625 15.90234375 C-39.3125 15.33984375 -39.3125 15.33984375 -41.26953125 14.33203125 C-43.53468945 13.2319353 -45.18734392 13.04708963 -47.6875 12.90234375 C-51.77836853 12.53720838 -54.73938494 11.44706545 -58.3125 9.33984375 C-58.3125 8.67984375 -58.3125 8.01984375 -58.3125 7.33984375 C-59.26125 7.38109375 -60.21 7.42234375 -61.1875 7.46484375 C-64.3125 7.33984375 -64.3125 7.33984375 -66.3125 5.33984375 C-62.81465009 4.46538127 -60.75047368 4.4724939 -57.3125 5.33984375 C-55.66715102 5.41400806 -54.021199 5.47535852 -52.375 5.52734375 C-45.30676866 6.08134026 -39.52700908 9.10908943 -33.3125 12.33984375 C-32.90257812 11.83453125 -32.49265625 11.32921875 -32.0703125 10.80859375 C-31.53148437 10.15890625 -30.99265625 9.50921875 -30.4375 8.83984375 C-29.90382813 8.19015625 -29.37015625 7.54046875 -28.8203125 6.87109375 C-28.32273437 6.36578125 -27.82515625 5.86046875 -27.3125 5.33984375 C-26.6525 5.33984375 -25.9925 5.33984375 -25.3125 5.33984375 C-25.3125 4.67984375 -25.3125 4.01984375 -25.3125 3.33984375 C-17.73945711 -1.60581691 -8.75869686 -2.50037123 0 0 Z " fill="#73BF2A" transform="translate(305.3125,50.66015625)"/>
<path d="M0 0 C6.32231405 -0.49586777 6.32231405 -0.49586777 9.5625 1.875 C10.366875 2.57625 11.17125 3.2775 12 4 C16.34206554 5.79117924 19.83078726 6.17787477 24.5 6 C29.17599971 5.82186668 32.62149472 6.31190158 37 8 C37 8.33 37 8.66 37 9 C32.38 9.33 27.76 9.66 23 10 C23 9.34 23 8.68 23 8 C22.01 8 21.02 8 20 8 C19.34 9.32 18.68 10.64 18 12 C17.34 11.34 16.68 10.68 16 10 C13.93125966 9.3574765 13.93125966 9.3574765 12 9 C11.65001953 9.82757813 11.65001953 9.82757813 11.29296875 10.671875 C9.65980716 13.61255267 7.60660793 15.79077251 5.3125 18.25 C2.24809485 21.5565636 -0.77230237 24.87389189 -3.6875 28.3125 C-10.04685583 35.59522834 -16.9468933 40.51803589 -26 44 C-27.03125 44.515625 -28.0625 45.03125 -29.125 45.5625 C-32 47 -32 47 -35 48 C-34.67 48.99 -34.34 49.98 -34 51 C-34.4640625 52.4540625 -34.4640625 52.4540625 -34.9375 53.9375 C-37.07518733 60.71165784 -36.44266704 68.14477363 -35 75 C-34.64833085 77.58257033 -34.31346865 80.16289551 -34 82.75 C-33.91242432 83.45938721 -33.82484863 84.16877441 -33.73461914 84.8996582 C-33.27340535 88.65943179 -32.83767449 92.42077819 -32.4375 96.1875 C-32.07699008 99.79498147 -32.07699008 99.79498147 -31.5 102.5 C-30.88707626 105.56461868 -30.57914636 108.62805623 -30.25 111.734375 C-29.90791919 114.83448233 -29.4570436 117.9149557 -29 121 C-28.855625 122.093125 -28.71125 123.18625 -28.5625 124.3125 C-27.51521328 131.1780463 -26.03858763 137.95418181 -24.4921875 144.72265625 C-24.15417313 146.2866434 -23.84853013 147.85787028 -23.5703125 149.43359375 C-22.61089355 154.82822138 -21.09420205 159.55970409 -18.9453125 164.59765625 C-18.03489248 166.91132696 -17.41911465 169.13989428 -16.875 171.5625 C-16.441875 173.2640625 -16.441875 173.2640625 -16 175 C-15.34 175.33 -14.68 175.66 -14 176 C-12.875 178.0625 -12.875 178.0625 -12 180 C-12.66 180.33 -13.32 180.66 -14 181 C-14.9765625 179.20963542 -15.953125 177.41927083 -16.9296875 175.62890625 C-17.91410024 173.83381685 -17.91410024 173.83381685 -20 173 C-20 171.68 -20 170.36 -20 169 C-20.66 169 -21.32 169 -22 169 C-25 162.375 -25 162.375 -25 159 C-25.66 159 -26.32 159 -27 159 C-29.10020053 155.84969921 -29.25463271 154.93105575 -29.4375 151.3125 C-29.80896584 146.27407244 -30.5638029 141.39505118 -31.5 136.4375 C-31.63075928 135.73471924 -31.76151855 135.03193848 -31.89624023 134.30786133 C-32.6049076 130.54490874 -32.6049076 130.54490874 -34 127 C-34.2528105 125.47698852 -34.46237223 123.94666056 -34.6484375 122.4140625 C-34.76525879 121.48980469 -34.88208008 120.56554687 -35.00244141 119.61328125 C-35.12538574 118.62714844 -35.24833008 117.64101563 -35.375 116.625 C-36.51157854 107.71651721 -36.51157854 107.71651721 -38.625 99 C-40.68957281 91.62345341 -40.56665932 83.97528649 -40.7890625 76.3671875 C-40.9507647 71.21281303 -41.44080909 66.12418005 -42 61 C-42.7263209 53.43588663 -41.73680825 48.12922166 -37 42 C-34.5625 40.125 -34.5625 40.125 -32 39 C-31.01 38.46375 -30.02 37.9275 -29 37.375 C-26 36 -26 36 -23.74609375 35.765625 C-19.6921333 34.63536007 -17.16765006 32.13587616 -14.0625 29.375 C-13.46759766 28.86582031 -12.87269531 28.35664063 -12.25976562 27.83203125 C-8.62002466 24.65769979 -5.40438991 21.30797824 -2.33276367 17.58178711 C-0.36300955 15.24398953 1.80977304 13.12938732 4 11 C6.35953094 8.64046906 6.49141413 7.22104383 7 4 C6.21625 3.71125 5.4325 3.4225 4.625 3.125 C2 2 2 2 0 0 Z " fill="#894216" transform="translate(310,228)"/>
<path d="M0 0 C0.33 0 0.66 0 1 0 C1.19335938 0.97582031 1.38671875 1.95164063 1.5859375 2.95703125 C1.97652344 4.86548828 1.97652344 4.86548828 2.375 6.8125 C2.63023437 8.07707031 2.88546875 9.34164062 3.1484375 10.64453125 C3.82777181 14.10239018 3.82777181 14.10239018 6 17 C6 17.99 6 18.98 6 20 C6.66 20 7.32 20 8 20 C9.80113636 28.28522727 9.80113636 28.28522727 8.08203125 31.96484375 C5.14602488 35.32850371 2.39343288 36.39247504 -2 36.9375 C-4.96220422 37.07961475 -7.37026824 36.93712426 -10.3125 36.4375 C-13.54526533 35.91123588 -15.03619863 36.75208363 -18 38 C-20.3125 37.625 -20.3125 37.625 -22 37 C-22 36.34 -22 35.68 -22 35 C-22.66 35 -23.32 35 -24 35 C-24.0825 34.401875 -24.165 33.80375 -24.25 33.1875 C-24.8069848 30.82149494 -24.8069848 30.82149494 -27.0625 29.6875 C-29 28 -29 28 -29.5 24.875 C-28.87983505 20.06872165 -27.4017763 16.19569564 -25 12 C-24.4946875 11.10152344 -23.989375 10.20304688 -23.46875 9.27734375 C-19.74181787 5.8393668 -16.15633813 6.22011229 -11.25 6.1875 C-10.36183594 6.16236328 -9.47367188 6.13722656 -8.55859375 6.11132812 C-6.37195082 6.0525474 -4.18730468 6.01620461 -2 6 C-1.855625 5.38125 -1.71125 4.7625 -1.5625 4.125 C-1 2 -1 2 0 0 Z " fill="#87CC31" transform="translate(164,210)"/>
<path d="M0 0 C0.99 0.495 0.99 0.495 2 1 C1.67 1.66 1.34 2.32 1 3 C1.66 3 2.32 3 3 3 C3.62247104 9.53594589 3.05436034 13.60245684 -0.921875 18.92578125 C-11.82689075 29.81029885 -29.23352108 30.44151215 -43.71679688 30.45898438 C-45.00638306 30.45257935 -45.00638306 30.45257935 -46.32202148 30.44604492 C-48.93097661 30.43752131 -51.53774293 30.46643319 -54.14648438 30.49804688 C-67.80418142 30.55572746 -82.32289339 29.61901497 -93 20 C-94.03546038 18.69401394 -95.04581129 17.36649247 -96 16 C-93.64565571 16.91557834 -91.34402306 17.817203 -89.11157227 19.00341797 C-76.51182356 24.95002153 -59.65263003 24.79758608 -46 24 C-45.19401367 23.95601074 -44.38802734 23.91202148 -43.55761719 23.86669922 C-30.59068413 23.07003462 -15.43022545 21.14006516 -5.13671875 12.421875 C-1.54474461 8.27803421 -0.22468058 5.50467415 0 0 Z " fill="#2F1208" transform="translate(303,420)"/>
<path d="M0 0 C0.66 0 1.32 0 2 0 C3.61200762 5.18145307 4.57630075 10.27007812 5.33984375 15.64453125 C5.82293878 18.35247547 5.82293878 18.35247547 9 20 C6.69 20 4.38 20 2 20 C1.67 19.34 1.34 18.68 1 18 C0.87625 19.19625 0.7525 20.3925 0.625 21.625 C0.03756048 26.29142095 -0.57918192 30.57918192 -4 34 C-4.99 34 -5.98 34 -7 34 C-7.66 35.32 -8.32 36.64 -9 38 C-10.98 37.67 -12.96 37.34 -15 37 C-15 36.34 -15 35.68 -15 35 C-15.99 35 -16.98 35 -18 35 C-18 34.34 -18 33.68 -18 33 C-20.31 33 -22.62 33 -25 33 C-25.66 30.69 -26.32 28.38 -27 26 C-26.34 25.67 -25.68 25.34 -25 25 C-25 25.99 -25 26.98 -25 28 C-19.54577543 25.43330608 -17.23962004 23.24013356 -14.32421875 18.01953125 C-12.48279685 15.21122705 -10.1032153 13.44302729 -7.5 11.3671875 C-5.46698816 9.51418192 -4.86000168 7.58000503 -4 5 C-2 2.1875 -2 2.1875 0 0 Z " fill="#31930A" transform="translate(315,63)"/>
<path d="M0 0 C0.33 0.66 0.66 1.32 1 2 C2.01707031 1.91298828 2.01707031 1.91298828 3.0546875 1.82421875 C10.52176133 1.46224149 15.7507954 2.86106785 22 7 C22.52207031 7.5259375 23.04414063 8.051875 23.58203125 8.59375 C25.70327598 10.69746379 28.17875694 11.18497423 31 12 C31 12.66 31 13.32 31 14 C31.763125 14.226875 32.52625 14.45375 33.3125 14.6875 C34.529375 15.120625 35.74625 15.55375 37 16 C37.89332031 16.29519531 38.78664062 16.59039062 39.70703125 16.89453125 C47.20861813 19.7364979 47.20861813 19.7364979 49.59765625 23.55078125 C50.5716415 26.01890875 51.37452767 28.42305399 52 31 C52.66 28.03 53.32 25.06 54 22 C54.33 22 54.66 22 55 22 C55.19827341 26.49959243 55.38168337 30.99967493 55.5625 35.5 C55.64661133 37.40265625 55.64661133 37.40265625 55.73242188 39.34375 C56.37784428 55.86656369 56.37784428 55.86656369 53.0625 61 C51 63 51 63 49 63 C49.0721875 62.42894531 49.144375 61.85789062 49.21875 61.26953125 C50.36778951 51.23139443 51.23888798 40.73665707 48 31 C47.79632813 30.34257812 47.59265625 29.68515625 47.3828125 29.0078125 C45.23542432 25.88985339 42.0549159 24.58361454 38.75 22.9375 C38.09386719 22.59912109 37.43773437 22.26074219 36.76171875 21.91210938 C34.84743176 20.9283257 32.92565231 19.96131703 31 19 C29.85015625 18.42378906 28.7003125 17.84757812 27.515625 17.25390625 C26.68546875 16.84011719 25.8553125 16.42632812 25 16 C25 15.34 25 14.68 25 14 C24.42636719 13.8865625 23.85273438 13.773125 23.26171875 13.65625 C20.77965258 12.936065 18.99841347 11.86967984 16.8125 10.5 C12.78883527 8.17891076 9.56149766 7.39546318 4.9453125 7.23828125 C3 7 3 7 0 5 C-0.1875 2.375 -0.1875 2.375 0 0 Z " fill="#59210B" transform="translate(187,239)"/>
<path d="M0 0 C2 1 2 1 3 3 C3.11329131 9.45760458 1.29612276 13.19430594 -3.1328125 17.8828125 C-8.99278854 22.20993377 -16.09987479 23.92254295 -23 26 C-23.66 26.33 -24.32 26.66 -25 27 C-46.40275666 30.10941428 -74.41180262 32.95540908 -93.48828125 20.66015625 C-95.44974547 18.50609347 -95.71691855 16.86734118 -96 14 C-95.5625 11.6875 -95.5625 11.6875 -95 10 C-93.5393715 12.64738916 -93 13.89448334 -93 17 C-91.824375 17.268125 -90.64875 17.53625 -89.4375 17.8125 C-86.63040492 18.45271467 -84.31184351 19.30942868 -81.6640625 20.5 C-65.3432111 27.18145729 -42.64508954 25.51828732 -26 21 C-25.18402344 20.8453125 -24.36804688 20.690625 -23.52734375 20.53125 C-15.14596535 18.76947649 -7.49918119 15.99430693 -2.16796875 9.0703125 C-0.41838259 5.96903938 -0.07379469 3.54214496 0 0 Z " fill="#BA7029" transform="translate(301,416)"/>
<path d="M0 0 C6.32231405 -0.49586777 6.32231405 -0.49586777 9.5625 1.875 C10.366875 2.57625 11.17125 3.2775 12 4 C16.34206554 5.79117924 19.83078726 6.17787477 24.5 6 C29.17599971 5.82186668 32.62149472 6.31190158 37 8 C37 8.33 37 8.66 37 9 C32.38 9.33 27.76 9.66 23 10 C23 9.34 23 8.68 23 8 C22.01 8 21.02 8 20 8 C19.34 9.32 18.68 10.64 18 12 C17.34 11.34 16.68 10.68 16 10 C13.93125966 9.3574765 13.93125966 9.3574765 12 9 C11.7525 9.5775 11.505 10.155 11.25 10.75 C9.78497722 13.38704101 8.32497923 15.07358864 6 17 C4.700625 17.2475 4.700625 17.2475 3.375 17.5 C2.199375 17.7475 2.199375 17.7475 1 18 C0.29848848 19.3153341 -0.36525925 20.65117592 -1 22 C-2.66666667 23 -4.33333333 24 -6 25 C-9.27278391 28.00317242 -12.3218755 31.22516905 -15.24609375 34.56640625 C-18.45177588 37.3992289 -21.52467583 38.46271898 -25.5625 39.5625 C-30.27659698 40.86659525 -33.96627624 41.93837924 -37 46 C-39.03102505 50.55852289 -39.34881436 54.88715547 -39.3125 59.8125 C-39.31048584 60.56789063 -39.30847168 61.32328125 -39.30639648 62.1015625 C-39.40474157 80.05409369 -39.40474157 80.05409369 -35 97 C-34.34888484 100.8560078 -33.91629519 104.74423895 -33.4375 108.625 C-33.29892578 109.69363281 -33.16035156 110.76226562 -33.01757812 111.86328125 C-32.29819355 117.62544535 -31.8383277 123.1938556 -32 129 C-34.39106604 126.60893396 -34.36779983 125.69979731 -34.74609375 122.4140625 C-34.85969238 121.48980469 -34.97329102 120.56554687 -35.09033203 119.61328125 C-35.20489746 118.62714844 -35.31946289 117.64101563 -35.4375 116.625 C-36.5254538 107.71438418 -36.5254538 107.71438418 -38.625 99 C-40.68957281 91.62345341 -40.56665932 83.97528649 -40.7890625 76.3671875 C-40.9507647 71.21281303 -41.44080909 66.12418005 -42 61 C-42.7263209 53.43588663 -41.73680825 48.12922166 -37 42 C-34.5625 40.125 -34.5625 40.125 -32 39 C-31.01 38.46375 -30.02 37.9275 -29 37.375 C-26 36 -26 36 -23.74609375 35.765625 C-19.6921333 34.63536007 -17.16765006 32.13587616 -14.0625 29.375 C-13.46759766 28.86582031 -12.87269531 28.35664063 -12.25976562 27.83203125 C-8.62002466 24.65769979 -5.40438991 21.30797824 -2.33276367 17.58178711 C-0.36300955 15.24398953 1.80977304 13.12938732 4 11 C6.35953094 8.64046906 6.49141413 7.22104383 7 4 C6.21625 3.71125 5.4325 3.4225 4.625 3.125 C2 2 2 2 0 0 Z " fill="#954D19" transform="translate(310,228)"/>
<path d="M0 0 C9.82568807 -0.57798165 9.82568807 -0.57798165 14 3 C16.3125 6.1875 16.3125 6.1875 18 9 C17.3709375 9.42410156 16.741875 9.84820312 16.09375 10.28515625 C11.10071827 13.70658613 6.44503541 17.25725612 1.94140625 21.296875 C-4.49265549 26.94124305 -10.27087423 31.16066098 -19 32 C-22.01994883 31.7920691 -25.00457163 31.43267299 -28 31 C-25.33440687 29.22293791 -22.9719385 28.12451727 -20 27 C-20.33 27.66 -20.66 28.32 -21 29 C-17.535 28.505 -17.535 28.505 -14 28 C-14 27.34 -14 26.68 -14 26 C-13.360625 25.896875 -12.72125 25.79375 -12.0625 25.6875 C-11.381875 25.460625 -10.70125 25.23375 -10 25 C-9.67 24.01 -9.34 23.02 -9 22 C-8.34 22 -7.68 22 -7 22 C-5.5393715 19.35261084 -5 18.10551666 -5 15 C-5.66 14.34 -6.32 13.68 -7 13 C-6.01 12.67 -5.02 12.34 -4 12 C-4.12375 10.6696875 -4.12375 10.6696875 -4.25 9.3125 C-3.94706398 5.29859772 -2.66459045 3.91439581 0 1 C0 0.67 0 0.34 0 0 Z M4.3125 6.0625 C1.95421401 9.05816058 1.04668266 11.37686771 0 15 C-0.66 15.66 -1.32 16.32 -2 17 C-2 17.66 -2 18.32 -2 19 C0.25436301 19.23215846 0.25436301 19.23215846 2.125 16.9375 C2.55425781 16.48890625 2.98351562 16.0403125 3.42578125 15.578125 C6.45381609 12.54257642 9.75237479 9.7963423 13 7 C12.16232993 4.77997664 12.16232993 4.77997664 9.75 4.0625 C6.79922184 3.70805709 6.79922184 3.70805709 4.3125 6.0625 Z M-7 15 C-7 18 -7 18 -7 18 Z " fill="#407A0C" transform="translate(292,219)"/>
<path d="M0 0 C1.20628008 2.33214148 2.1654738 4.49642139 3 7 C1.92578125 9.2265625 1.92578125 9.2265625 0.3125 11.625 C-0.20699219 12.42164063 -0.72648437 13.21828125 -1.26171875 14.0390625 C-3.22869295 16.2579862 -4.2075099 16.37683379 -7 17 C-7.495 18.485 -7.495 18.485 -8 20 C-14.88095785 24.15637656 -22.38162935 25.18598879 -30.18359375 23.5390625 C-31.80759569 23.08813238 -33.40810388 22.553703 -35 22 C-35 21.34 -35 20.68 -35 20 C-35.73734375 19.92523438 -36.4746875 19.85046875 -37.234375 19.7734375 C-40.71986396 18.79868211 -41.92771547 17.36387756 -44.25 14.625 C-44.93578125 13.83351562 -45.6215625 13.04203125 -46.328125 12.2265625 C-48 10 -48 10 -49 7 C-46.11189001 7.44432461 -44.59935225 8.27000175 -42.125 9.9375 C-39.09826227 11.9351469 -36.46691686 13.00945233 -33 14 C-33 14.66 -33 15.32 -33 16 C-27.28204385 18.2513227 -27.28204385 18.2513227 -21.25 19 C-18.76516785 18.05683835 -18.76516785 18.05683835 -16.5625 15.5625 C-14 13 -14 13 -10.875 12 C-7.18750801 10.71739409 -6.77724007 9.39993752 -5 6 C-3.39862672 3.93762532 -1.70392973 1.98024266 0 0 Z " fill="#34710C" transform="translate(186,240)"/>
<path d="M0 0 C0.99 0 1.98 0 3 0 C3.33 1.32 3.66 2.64 4 4 C5.98 4 7.96 4 10 4 C10.08636719 4.59167969 10.17273438 5.18335938 10.26171875 5.79296875 C11.24277063 11.31026049 12.26964104 14.5780382 17 18 C24.28486076 21.26387376 31.30019541 21.44829456 39.15429688 21.52734375 C40.43723633 21.56021484 40.43723633 21.56021484 41.74609375 21.59375 C42.90129517 21.60438477 42.90129517 21.60438477 44.07983398 21.61523438 C46 22 46 22 48 25 C48.1953125 27.26171875 48.1953125 27.26171875 48.125 29.6875 C48.10695312 30.49574219 48.08890625 31.30398437 48.0703125 32.13671875 C48.04710937 32.75160156 48.02390625 33.36648437 48 34 C47.67 33.01 47.34 32.02 47 31 C43.04 31.33 39.08 31.66 35 32 C35 31.34 35 30.68 35 30 C34.44183594 30.22042969 33.88367188 30.44085938 33.30859375 30.66796875 C30.09215285 31.13057023 28.77224851 30.03688542 26.0625 28.3125 C24.74185547 27.47525391 24.74185547 27.47525391 23.39453125 26.62109375 C20.81117465 24.87216555 18.39615309 22.99679424 16 21 C15.05125 20.4225 14.1025 19.845 13.125 19.25 C7.323 15.07256 2.64832512 9.69870472 0 3 C0 2.01 0 1.02 0 0 Z " fill="#1B5107" transform="translate(115,165)"/>
<path d="M0 0 C0.99 0.495 0.99 0.495 2 1 C1.67 1.66 1.34 2.32 1 3 C1.66 3 2.32 3 3 3 C3.63117781 9.62736701 2.97050018 13.7451684 -1.01953125 19.17578125 C-4.48058858 22.36377686 -8.39705939 22.95623194 -13 23 C-14.67572122 22.71566344 -16.34683237 22.39487426 -18 22 C-18 22.66 -18 23.32 -18 24 C-37.29396437 27.5502585 -67.52507754 32.64994831 -85 21 C-84.113125 21.12375 -83.22625 21.2475 -82.3125 21.375 C-81.66410156 21.46394531 -81.01570312 21.55289062 -80.34765625 21.64453125 C-78.66248531 21.89969024 -76.98297708 22.1933672 -75.30859375 22.51171875 C-52.74928606 26.57412282 -27.34338584 25.1296917 -7 14 C-3.40794468 10.95767222 -0.8072618 7.79989534 -0.125 3.0625 C-0.08375 2.051875 -0.0425 1.04125 0 0 Z " fill="#57240B" transform="translate(303,420)"/>
<path d="M0 0 C0.66 0.66 1.32 1.32 2 2 C-7.33492818 12.54041332 -15.63273994 21.77977916 -29 27 C-30.03125 27.515625 -31.0625 28.03125 -32.125 28.5625 C-35 30 -35 30 -38 31 C-37.67 31.99 -37.34 32.98 -37 34 C-37.4640625 35.4540625 -37.4640625 35.4540625 -37.9375 36.9375 C-39.80282211 42.84855452 -39.67094818 49.65012106 -38.4609375 55.69140625 C-37.91968501 58.40225559 -38.31724242 60.34483164 -39 63 C-39.66 62.67 -40.32 62.34 -41 62 C-41.0744389 57.9615943 -41.12873729 53.92345707 -41.16479492 49.88452148 C-41.17983432 48.51205483 -41.20027133 47.13963586 -41.22631836 45.76733398 C-41.26291221 43.78911344 -41.27816698 41.81053486 -41.29296875 39.83203125 C-41.31653442 38.04889526 -41.31653442 38.04889526 -41.34057617 36.22973633 C-40.84272136 31.5085024 -38.67310004 27.9866226 -35 25 C-32.765625 23.97265625 -32.765625 23.97265625 -30.25 23.0625 C-21.63860724 19.72542908 -16.89532751 16.16282293 -11 9 C-8.43128309 6.21110735 -6.38144821 4.63618462 -3 3 C-1.29078411 1.4587688 -1.29078411 1.4587688 0 0 Z " fill="#612B0E" transform="translate(313,245)"/>
<path d="M0 0 C0.86625 0.2475 1.7325 0.495 2.625 0.75 C5.64229732 2.33805122 6.3799294 4.04161022 8 7 C9.29579647 8.36984198 10.61992749 9.7151049 12 11 C9.04787961 11 7.64948132 10.56779982 4.9609375 9.51953125 C-0.21317507 7.73929284 -4.94427459 7.58633149 -10.375 7.6875 C-11.26316406 7.68427734 -12.15132812 7.68105469 -13.06640625 7.67773438 C-18.33933429 7.63832191 -18.33933429 7.63832191 -23 10 C-23.33 7.69 -23.66 5.38 -24 3 C-7.79077595 -2.38051487 -7.79077595 -2.38051487 0 0 Z " fill="#40730C" transform="translate(211,226)"/>
<path d="M0 0 C3.74596694 1.22317288 5.38540646 3.17342408 8.0625 6 C5.51895325 8.0456534 2.95004877 10.05669613 0.375 12.0625 C-0.34623047 12.64322266 -1.06746094 13.22394531 -1.81054688 13.82226562 C-2.51630859 14.36689453 -3.22207031 14.91152344 -3.94921875 15.47265625 C-4.59334717 15.98062744 -5.23747559 16.48859863 -5.90112305 17.01196289 C-8.5904355 18.31680014 -10.12910574 17.82098086 -12.9375 17 C-13.63671875 15.31640625 -13.63671875 15.31640625 -13.9375 13 C-12.64453125 10.52734375 -12.64453125 10.52734375 -10.75 7.9375 C-10.13769531 7.08027344 -9.52539062 6.22304687 -8.89453125 5.33984375 C-6.13478587 2.04026793 -4.41095433 0 0 0 Z " fill="#3A830D" transform="translate(252.9375,182)"/>
<path d="M0 0 C3 3.625 3 3.625 3 7 C4.7634375 7.4021875 4.7634375 7.4021875 6.5625 7.8125 C10.58054066 8.81346066 14.22366501 10.28996151 18 12 C35.71019989 19.5818176 57.44534434 16.0864673 76 14 C61.75742599 23.49504934 34.60944424 19.84928159 18.60546875 16.84301758 C12.26573711 15.50380628 5.52544752 13.96980671 1 9 C0.05293208 5.83466605 0 3.34276098 0 0 Z " fill="#9C531B" transform="translate(205,426)"/>
<path d="M0 0 C0.66 0.33 1.32 0.66 2 1 C1.443125 1.680625 0.88625 2.36125 0.3125 3.0625 C-0.450625 4.031875 -1.21375 5.00125 -2 6 C-2.69996094 6.88365234 -2.69996094 6.88365234 -3.4140625 7.78515625 C-3.87554687 8.39230469 -4.33703125 8.99945313 -4.8125 9.625 C-5.25207031 10.19476563 -5.69164062 10.76453125 -6.14453125 11.3515625 C-6.42683594 11.89554688 -6.70914062 12.43953125 -7 13 C-6.67 13.99 -6.34 14.98 -6 16 C-6.03124934 17.60507957 -6.09858243 19.2095806 -6.1875 20.8125 C-6.29289957 29.60750824 -3.34689573 37.94935891 0 46 C-6.31311578 40.24983722 -8.8831507 31.98475077 -11.32421875 23.97265625 C-11.96484459 21.93915585 -11.96484459 21.93915585 -13.0859375 19.9296875 C-14.50184444 16.94055063 -13.95334329 15.11425475 -13 12 C-10.9375 9.5625 -10.9375 9.5625 -8 7 C-7.30390625 6.38382813 -6.6078125 5.76765625 -5.890625 5.1328125 C-3.93803828 3.40871997 -1.97389594 1.69960767 0 0 Z " fill="#306909" transform="translate(264,203)"/>
<path d="M0 0 C1.32 1.32 2.64 2.64 4 4 C3.3709375 4.42410156 2.741875 4.84820312 2.09375 5.28515625 C-2.89928173 8.70658613 -7.55496459 12.25725612 -12.05859375 16.296875 C-18.49265549 21.94124305 -24.27087423 26.16066098 -33 27 C-36.01994883 26.7920691 -39.00457163 26.43267299 -42 26 C-39.33440687 24.22293791 -36.9719385 23.12451727 -34 22 C-34.33 22.66 -34.66 23.32 -35 24 C-32.3286992 23.68834824 -29.66512852 23.35739271 -27 23 C-26.21625 22.896875 -25.4325 22.79375 -24.625 22.6875 C-22.31156031 21.70873706 -22.08319983 20.23011729 -21 18 C-16.55555556 14 -16.55555556 14 -14 14 C-13.773125 13.38125 -13.54625 12.7625 -13.3125 12.125 C-11.61137042 9.3707902 -9.94623846 9.17849539 -7 8 C-6.67 7.34 -6.34 6.68 -6 6 C-5 4 -5 4 -2.375 2.75 C-1.59125 2.5025 -0.8075 2.255 0 2 C0 1.34 0 0.68 0 0 Z " fill="#875E13" transform="translate(306,224)"/>
<path d="M0 0 C1.98 0.66 3.96 1.32 6 2 C4.68849515 5.93451456 2.84269924 6.83582833 -0.5 9.25 C-1.59146169 10.05035069 -2.68260432 10.85113665 -3.7734375 11.65234375 C-5.37058594 12.81443359 -5.37058594 12.81443359 -7 14 C-8.7156544 15.26093224 -10.42498189 16.53056452 -12.125 17.8125 C-12.82882812 18.33457031 -13.53265625 18.85664063 -14.2578125 19.39453125 C-16.17274203 21.15918604 -17.0849085 22.57093514 -18 25 C-17.6985005 29.62299239 -16.08486546 32.92091541 -14 37 C-14 37.99 -14 38.98 -14 40 C-14.99 40 -15.98 40 -17 40 C-17.99 37.03 -18.98 34.06 -20 31 C-21.32 31 -22.64 31 -24 31 C-21.94736842 21.68421053 -21.94736842 21.68421053 -19 18 C-16.1875 16.4375 -16.1875 16.4375 -13 15 C-6.92240752 11.58135423 -2.2267562 6.68026859 0 0 Z " fill="#9A581A" transform="translate(269,192)"/>
<path d="M0 0 C0.33 0 0.66 0 1 0 C1.19827341 4.49959243 1.38168337 8.99967493 1.5625 13.5 C1.61857422 14.7684375 1.67464844 16.036875 1.73242188 17.34375 C2.37784428 33.86656369 2.37784428 33.86656369 -0.9375 39 C-3 41 -3 41 -5 41 C-4.9278125 40.40574219 -4.855625 39.81148438 -4.78125 39.19921875 C-4.06182721 32.77437359 -3.88944165 26.46152127 -4 20 C-3.34 20 -2.68 20 -2 20 C-2.09539062 19.22914063 -2.19078125 18.45828125 -2.2890625 17.6640625 C-2.39992187 16.66117187 -2.51078125 15.65828125 -2.625 14.625 C-2.74101562 13.62726563 -2.85703125 12.62953125 -2.9765625 11.6015625 C-2.98429688 10.74304688 -2.99203125 9.88453125 -3 9 C-2.34 8.34 -1.68 7.68 -1 7 C-0.59952556 4.67724823 -0.2602896 2.34260643 0 0 Z " fill="#8B4413" transform="translate(241,261)"/>
<path d="M0 0 C0.66 0 1.32 0 2 0 C2.2475 0.61875 2.495 1.2375 2.75 1.875 C4.23250486 4.39525827 5.28387064 5.01231659 8 6 C8.99 6 9.98 6 11 6 C12.6875 8 12.6875 8 14 10 C14.33 7.03 14.66 4.06 15 1 C17 5 17 5 17.5 7.1875 C17.7475 8.0846875 17.7475 8.0846875 18 9 C18.66 9.33 19.32 9.66 20 10 C20.33333333 11.66666667 20.66666667 13.33333333 21 15 C21.66 15.33 22.32 15.66 23 16 C22.67 16.99 22.34 17.98 22 19 C21.34 19 20.68 19 20 19 C19.195625 18.030625 18.39125 17.06125 17.5625 16.0625 C15.29315623 12.80624673 15.29315623 12.80624673 12 12 C9.26710707 11.77202438 6.54957796 11.58331813 3.8125 11.4375 C3.06291016 11.39431641 2.31332031 11.35113281 1.54101562 11.30664062 C-0.30578375 11.20077315 -2.15286834 11.0999024 -4 11 C-3.51917969 10.59136719 -3.03835938 10.18273437 -2.54296875 9.76171875 C-0.7152226 7.67484909 -0.53608523 6.5402398 -0.3125 3.8125 C-0.209375 2.554375 -0.10625 1.29625 0 0 Z " fill="#59A71A" transform="translate(285,127)"/>
<path d="M0 0 C0.78503906 0.02707031 1.57007813 0.05414063 2.37890625 0.08203125 C9.62809423 0.36693383 14.91932968 2.50295967 21.34765625 5.8203125 C22.66056641 6.40425781 22.66056641 6.40425781 24 7 C24.66 6.67 25.32 6.34 26 6 C25.34 7.32 24.68 8.64 24 10 C18.49268617 10.25033245 18.49268617 10.25033245 16.0703125 9.01953125 C13.78678648 7.8950024 12.15068088 7.70872363 9.625 7.5625 C5.53413147 7.19736463 2.57311506 6.1072217 -1 4 C-1 3.34 -1 2.68 -1 2 C-1.94875 2.04125 -2.8975 2.0825 -3.875 2.125 C-7 2 -7 2 -9 0 C-5.37572339 -1.2080922 -3.76346489 -0.6720473 0 0 Z " fill="#9BD549" transform="translate(248,56)"/>
<path d="M0 0 C4.61428743 8.37334054 5.28854459 18.5299984 6.30078125 27.89111328 C7.06099616 34.85816616 8.3450073 41.54351368 10.125 48.3125 C10.85955393 51.40812012 11.19678613 53.85142195 11 57 C10.01 57.495 10.01 57.495 9 58 C7.82428549 54.32589215 7.92633254 50.83070817 8 47 C7.34 47 6.68 47 6 47 C4.16708953 37.92098345 2.62941049 28.88731954 1.64697266 19.67407227 C1.34533828 16.85667163 1.01840758 14.08981856 0.44921875 11.3125 C-0.02358133 8.87860741 -0.09945287 6.6633421 -0.0625 4.1875 C-0.05347656 3.39730469 -0.04445313 2.60710937 -0.03515625 1.79296875 C-0.02355469 1.20128906 -0.01195312 0.60960937 0 0 Z " fill="#AA6123" transform="translate(270,321)"/>
<path d="M0 0 C0.33 0.99 0.66 1.98 1 3 C3.63178728 4.10202887 3.63178728 4.10202887 7 5 C8.58486999 5.53715392 10.1681531 6.07900768 11.75 6.625 C14.81116047 7.69553678 14.81116047 7.69553678 18 8 C19.625 9.5 19.625 9.5 21 11 C21.39832031 10.4225 21.79664063 9.845 22.20703125 9.25 C22.73683594 8.5075 23.26664062 7.765 23.8125 7 C24.33457031 6.2575 24.85664063 5.515 25.39453125 4.75 C26.18923828 3.88375 26.18923828 3.88375 27 3 C30 3 30 3 32 4 C30.7934375 5.175625 30.7934375 5.175625 29.5625 6.375 C26.31546214 9.67791559 26.31546214 9.67791559 25.9375 14.125 C25.958125 15.07375 25.97875 16.0225 26 17 C26.66 17.33 27.32 17.66 28 18 C24.23134667 17.77831451 22.57520728 16.76958385 20.125 14.0625 C17.05976127 10.79343465 14.47612145 9.78528446 10 9 C8.205625 9.0928125 8.205625 9.0928125 6.375 9.1875 C3 9 3 9 0.125 6.6875 C-2 4 -2 4 -3 1 C-2.01 0.67 -1.02 0.34 0 0 Z " fill="#68BF1F" transform="translate(330,134)"/>
<path d="M0 0 C0.99 0.495 0.99 0.495 2 1 C1.979375 1.886875 1.95875 2.77375 1.9375 3.6875 C1.99405962 6.68516002 2.3916486 9.08072988 3 12 C3.33575213 13.94169906 3.6711953 15.88345489 4.00244141 17.82592773 C5.80602516 31.29091132 5.80602516 31.29091132 10 44 C9.34 44 8.68 44 8 44 C7.67 44.66 7.34 45.32 7 46 C1.59652837 30.26173311 -0.20167154 16.60428985 0 0 Z " fill="#703110" transform="translate(279,343)"/>
<path d="M0 0 C0.33 0.66 0.66 1.32 1 2 C2.01707031 1.91298828 2.01707031 1.91298828 3.0546875 1.82421875 C10.52176133 1.46224149 15.7507954 2.86106785 22 7 C22.52207031 7.5259375 23.04414063 8.051875 23.58203125 8.59375 C25.70327598 10.69746379 28.17875694 11.18497423 31 12 C31 12.66 31 13.32 31 14 C31.804375 14.2475 32.60875 14.495 33.4375 14.75 C37.74324143 16.26078647 41.85364007 18.10188856 46 20 C46 20.33 46 20.66 46 21 C40.30439748 21.55566854 37.71106556 19.87898451 33 17 C32.236875 16.814375 31.47375 16.62875 30.6875 16.4375 C29 16 29 16 27 13 C24.69855891 11.92863949 22.3659787 10.92010283 20 10 C20 9.34 20 8.68 20 8 C15.96130949 6.92746838 11.89188536 6.43145276 7.75 5.9375 C6.63238281 5.80118164 6.63238281 5.80118164 5.4921875 5.66210938 C3.66172944 5.43916897 1.83089991 5.2192822 0 5 C0 3.35 0 1.7 0 0 Z " fill="#8A4414" transform="translate(187,239)"/>
<path d="M0 0 C6.32231405 -0.49586777 6.32231405 -0.49586777 9.5625 1.875 C10.366875 2.57625 11.17125 3.2775 12 4 C16.34206554 5.79117924 19.83078726 6.17787477 24.5 6 C29.17599971 5.82186668 32.62149472 6.31190158 37 8 C37 8.33 37 8.66 37 9 C32.38 9.33 27.76 9.66 23 10 C23 9.34 23 8.68 23 8 C22.01 8 21.02 8 20 8 C19.34 9.32 18.68 10.64 18 12 C17.34 11.34 16.68 10.68 16 10 C13.93125966 9.3574765 13.93125966 9.3574765 12 9 C11.34 10.32 10.68 11.64 10 13 C9.375 11.1875 9.375 11.1875 9 9 C9.66 8.01 10.32 7.02 11 6 C10.113125 5.7525 9.22625 5.505 8.3125 5.25 C4.89572865 3.96065232 2.7202252 2.40019871 0 0 Z " fill="#325B0A" transform="translate(310,228)"/>
<path d="M0 0 C3.03015319 1.66210934 4.61851735 3.32230728 6.5390625 6.203125 C5.5490625 6.533125 4.5590625 6.863125 3.5390625 7.203125 C3.5390625 6.543125 3.5390625 5.883125 3.5390625 5.203125 C-5.71923507 3.75084303 -15.22231893 3.48431224 -24.4609375 5.203125 C-23.4609375 2.203125 -23.4609375 2.203125 -20.86328125 0.54296875 C-14.50291016 -1.96174685 -6.53680842 -2.11668082 0 0 Z " fill="#A3DE46" transform="translate(305.4609375,50.796875)"/>
<path d="M0 0 C1.32 0.66 2.64 1.32 4 2 C1.85714286 10.31010453 1.85714286 10.31010453 -1.5625 13.0625 C-4 14 -4 14 -6 14 C-6.226875 14.598125 -6.45375 15.19625 -6.6875 15.8125 C-8 18 -8 18 -10.125 19.25 C-12.94992852 20.96952171 -14.68449583 22.67164472 -16.9375 25.0625 C-20.07300074 28.30509565 -22.46112152 30.0922243 -27 31 C-23.52498875 27.4679174 -19.9430422 24.11962906 -16.25 20.8125 C-5.4944316 11.9796404 -5.4944316 11.9796404 0 0 Z " fill="#984E19" transform="translate(317,232)"/>
<path d="M0 0 C1.03769531 -0.03738281 2.07539063 -0.07476562 3.14453125 -0.11328125 C11.75095109 -0.21220562 11.75095109 -0.21220562 15.421875 2.7109375 C17.75 5.375 17.75 5.375 18.75 8.375 C18.14671875 8.17003906 17.5434375 7.96507812 16.921875 7.75390625 C16.12265625 7.48449219 15.3234375 7.21507812 14.5 6.9375 C13.71109375 6.67066406 12.9221875 6.40382812 12.109375 6.12890625 C8.40296294 4.9445726 5.17908878 4.24796631 1.2734375 4.2421875 C0.438125 4.24089844 -0.3971875 4.23960937 -1.2578125 4.23828125 C-2.12148437 4.24214844 -2.98515625 4.24601563 -3.875 4.25 C-5.18210938 4.24419922 -5.18210938 4.24419922 -6.515625 4.23828125 C-7.76472656 4.24021484 -7.76472656 4.24021484 -9.0390625 4.2421875 C-9.79912598 4.24331543 -10.55918945 4.24444336 -11.34228516 4.24560547 C-13.33678495 4.2577003 -13.33678495 4.2577003 -15.25 5.375 C-12.19218277 -1.39588101 -6.70936294 0.09033414 0 0 Z " fill="#8F5017" transform="translate(204.25,229.625)"/>
<path d="M0 0 C2 1 2 1 3 3 C3.11746911 9.6957395 1.06740124 13.19718279 -3.53515625 18.0078125 C-7.52985348 21.23649013 -11.9646502 23.04011102 -17 24 C-17.99 23.67 -18.98 23.34 -20 23 C-17.9214735 21.30638582 -16.18411327 20.06636641 -13.6484375 19.15234375 C-8.18819229 16.77657334 -3.1728345 11.97237446 -0.9765625 6.40625 C-0.34315051 3.71098806 -0.34315051 3.71098806 0 0 Z " fill="#A85D21" transform="translate(301,416)"/>
<path d="M0 0 C0.66 0.66 1.32 1.32 2 2 C-0.41141151 4.60907554 -2.8300275 7.21136505 -5.25 9.8125 C-5.93191406 10.55048828 -6.61382812 11.28847656 -7.31640625 12.04882812 C-7.98027344 12.76103516 -8.64414062 13.47324219 -9.328125 14.20703125 C-9.9355957 14.8616333 -10.54306641 15.51623535 -11.16894531 16.19067383 C-13.00056218 18.00055551 -14.90599015 19.50629993 -17 21 C-18.32 20.34 -19.64 19.68 -21 19 C-19.89973881 17.89973881 -18.79872177 16.80022907 -17.6953125 15.703125 C-16.38836681 14.39015652 -15.09384056 13.06481766 -13.8046875 11.734375 C-13.02351563 10.93515625 -12.24234375 10.1359375 -11.4375 9.3125 C-10.69371094 8.54550781 -9.94992187 7.77851563 -9.18359375 6.98828125 C-7.15643346 5.1424412 -5.46912777 4.12137359 -3 3 C-1.29078411 1.4587688 -1.29078411 1.4587688 0 0 Z " fill="#7E3710" transform="translate(313,245)"/>
<path d="M0 0 C3 3.625 3 3.625 3 7 C4.7634375 7.4021875 4.7634375 7.4021875 6.5625 7.8125 C10.58054066 8.81346066 14.22366501 10.28996151 18 12 C21.66742654 13.6100897 25.02841957 14.44582599 29 15 C29 15.33 29 15.66 29 16 C10.64897748 15.96001956 10.64897748 15.96001956 2.65234375 10.765625 C-0.34140343 7.56663274 0 4.23007244 0 0 Z " fill="#A96323" transform="translate(205,426)"/>
<path d="M0 0 C1.6619068 2.99143223 2.91786628 5.55038367 3 9 C0.6875 12.0625 0.6875 12.0625 -2 15 C-3.27852287 17.21587348 -3.27852287 17.21587348 -4 19 C-4.66 17.68 -5.32 16.36 -6 15 C-7.65 16.32 -9.3 17.64 -11 19 C-11.33 18.01 -11.66 17.02 -12 16 C-10.41771761 13.20773696 -8.35939261 11.45159516 -5.875 9.5 C-2.72155693 6.80293982 -2.72155693 6.80293982 -2 3 C-1.34 3 -0.68 3 0 3 C0 2.01 0 1.02 0 0 Z " fill="#4E9816" transform="translate(374,94)"/>
<path d="M0 0 C3.53383267 0.57599916 5.16912771 1.8109395 7.625 4.375 C8.51058594 5.28378906 8.51058594 5.28378906 9.4140625 6.2109375 C11 8 11 8 13 11 C16.55532966 12.80520181 19.73547318 13.30909582 23.6875 13.5625 C28.80343214 13.90171607 28.80343214 13.90171607 31 15 C31 15.66 31 16.32 31 17 C24.90218999 17.22084624 19.78357065 17.01167675 14 15 C14 14.34 14 13.68 14 13 C13.26265625 12.92523438 12.5253125 12.85046875 11.765625 12.7734375 C8.28013604 11.79868211 7.07228453 10.36387756 4.75 7.625 C4.06421875 6.83351562 3.3784375 6.04203125 2.671875 5.2265625 C1 3 1 3 0 0 Z " fill="#184707" transform="translate(137,247)"/>
<path d="M0 0 C0.33 0 0.66 0 1 0 C1 2.31 1 4.62 1 7 C0.01 7 -0.98 7 -2 7 C-2.20625 7.886875 -2.4125 8.77375 -2.625 9.6875 C-4.36569832 13.88100049 -6.22666198 15.508173 -10 18 C-13.875 18.8125 -13.875 18.8125 -17 19 C-17 16 -17 16 -15.875 14.4375 C-14 13 -14 13 -11 12.125 C-7.25159906 10.71934965 -6.82057669 9.48284237 -5 6 C-3.41795384 3.90539059 -1.74109571 1.97018725 0 0 Z " fill="#43800E" transform="translate(186,240)"/>
<path d="M0 0 C1.32 0.66 2.64 1.32 4 2 C4 3.32 4 4.64 4 6 C4.66 6 5.32 6 6 6 C6 6.99 6 7.98 6 9 C7.24716797 9.14695313 7.24716797 9.14695313 8.51953125 9.296875 C9.60621094 9.44640625 10.69289062 9.5959375 11.8125 9.75 C12.89144531 9.88921875 13.97039062 10.0284375 15.08203125 10.171875 C18 11 18 11 19.88671875 12.890625 C21 15 21 15 21 18 C19.68 17.67 18.36 17.34 17 17 C17 16.34 17 15.68 17 15 C15.948125 14.731875 14.89625 14.46375 13.8125 14.1875 C10.38647269 13.12037674 7.97916645 11.93243229 5 10 C4.278125 9.7525 3.55625 9.505 2.8125 9.25 C-0.12262259 7.22577752 -0.25745066 4.34147204 -1 1 C-0.67 0.67 -0.34 0.34 0 0 Z " fill="#458B12" transform="translate(136,239)"/>
<path d="M0 0 C-4.28401696 3.9705523 -7.26846821 5.48601047 -13 7 C-15.29603005 8.82098935 -16.340537 10.5108055 -18 13 C-18.34694268 8.14280246 -18.08095585 4.87320165 -15 1 C-10.03055686 -0.69518387 -5.07672639 -1.64423526 0 0 Z " fill="#7BC82B" transform="translate(333,83)"/>
<path d="M0 0 C1.25081152 2.50162304 0.96505037 3.96286343 0.8125 6.75 C0.70774187 15.57296276 3.6420786 23.92283771 7 32 C3.81814055 29.11665189 2.03714052 26.48510509 0.3125 22.5625 C-0.10386719 21.63566406 -0.52023437 20.70882812 -0.94921875 19.75390625 C-2.97679922 14.43998717 -3.35760428 9.63226736 -3 4 C-1.5 1.5 -1.5 1.5 0 0 Z " fill="#588511" transform="translate(257,217)"/>
<path d="M0 0 C-2.9016719 3.78478944 -5.63292088 4.83310064 -10.140625 5.6953125 C-16.07383726 6.32754004 -22.04318434 6.14126836 -28 6 C-28.33 5.34 -28.66 4.68 -29 4 C-28.16597656 3.96261719 -27.33195313 3.92523438 -26.47265625 3.88671875 C-20.22682883 3.52184223 -14.85711894 2.85860259 -9.01171875 0.6328125 C-5.92376156 -0.33854491 -3.21168983 -0.20500148 0 0 Z " fill="#4C8E12" transform="translate(229,204)"/>
<path d="M0 0 C1.65 0.66 3.3 1.32 5 2 C4.01 2.66 3.02 3.32 2 4 C0.36192007 7.09415098 -0.06080717 9.69430328 -0.25 13.125 C-1 17 -1 17 -3.9375 19 C-7 20 -7 20 -9 20 C-9 20.99 -9 21.98 -9 23 C-11.31 23 -13.62 23 -16 23 C-15.3125 21.0625 -15.3125 21.0625 -14 19 C-11.4375 18.375 -11.4375 18.375 -9 18 C-8.67 17.34 -8.34 16.68 -8 16 C-6.78763672 15.40251953 -6.78763672 15.40251953 -5.55078125 14.79296875 C-2.08503283 12.35686075 -1.95792861 10.40793631 -1.1875 6.3125 C-0.95417969 5.13300781 -0.72085937 3.95351562 -0.48046875 2.73828125 C-0.24263672 1.38283203 -0.24263672 1.38283203 0 0 Z " fill="#66BB20" transform="translate(316,81)"/>
<path d="M0 0 C0.66 0.33 1.32 0.66 2 1 C0.54694849 5.11697928 -1.32645794 8.54012204 -4 12 C-6.1875 12.6875 -6.1875 12.6875 -8 13 C-8.33 13.99 -8.66 14.98 -9 16 C-11.06640625 16.94921875 -11.06640625 16.94921875 -13.5625 17.6875 C-14.38878906 17.93886719 -15.21507812 18.19023437 -16.06640625 18.44921875 C-16.70449219 18.63097656 -17.34257812 18.81273437 -18 19 C-18 18.34 -18 17.68 -18 17 C-16.42578125 15.88671875 -16.42578125 15.88671875 -14.3125 14.6875 C-9.36103518 11.70785745 -5.23582694 8.48793884 -3 3 C-2.01 3 -1.02 3 0 3 C0 2.01 0 1.02 0 0 Z " fill="#2D5809" transform="translate(187,244)"/>
<path d="M0 0 C0.33 0.99 0.66 1.98 1 3 C0.360625 3.721875 -0.27875 4.44375 -0.9375 5.1875 C-3.26804769 8.36551958 -3.16856971 9.83892292 -2.94140625 13.6640625 C-3.05666238 18.25894019 -4.65199656 22.63503648 -6 27 C-6.33 27 -6.66 27 -7 27 C-7.05401695 24.08308475 -7.09368066 21.16717276 -7.125 18.25 C-7.14175781 17.425 -7.15851563 16.6 -7.17578125 15.75 C-7.18222656 14.95078125 -7.18867188 14.1515625 -7.1953125 13.328125 C-7.20578613 12.5949707 -7.21625977 11.86181641 -7.22705078 11.10644531 C-6.68419584 6.07015237 -3.55179363 3.36485713 0 0 Z " fill="#6DC022" transform="translate(171,166)"/>
<path d="M0 0 C0.33 0 0.66 0 1 0 C1.19827341 4.49959243 1.38168337 8.99967493 1.5625 13.5 C1.61857422 14.7684375 1.67464844 16.036875 1.73242188 17.34375 C2.37784428 33.86656369 2.37784428 33.86656369 -0.9375 39 C-3 41 -3 41 -5 41 C-4.67 39.35 -4.34 37.7 -4 36 C-3.34 36 -2.68 36 -2 36 C-2 35.34 -2 34.68 -2 34 C-1.34 34 -0.68 34 0 34 C0 22.78 0 11.56 0 0 Z " fill="#9B521A" transform="translate(241,261)"/>
<path d="M0 0 C0.99 0 1.98 0 3 0 C3.33 1.32 3.66 2.64 4 4 C5.98 4 7.96 4 10 4 C10.33 6.64 10.66 9.28 11 12 C3.53061224 9.79591837 3.53061224 9.79591837 1 6 C0 3 0 3 0 0 Z " fill="#27600A" transform="translate(115,165)"/>
<path d="M0 0 C1.41345703 0.23589844 1.41345703 0.23589844 2.85546875 0.4765625 C5.90578454 0.91440687 8.90870668 1.1113886 11.98828125 1.2109375 C12.85904297 1.23929688 13.72980469 1.26765625 14.62695312 1.296875 C16.43662474 1.34951999 18.24656284 1.39361478 20.05664062 1.4296875 C20.92095703 1.460625 21.78527344 1.4915625 22.67578125 1.5234375 C23.45864502 1.54325684 24.24150879 1.56307617 25.0480957 1.58349609 C27 2 27 2 29 5 C29 5.99 29 6.98 29 8 C25.125 6.125 25.125 6.125 24 5 C21.47673207 4.83950946 18.96323641 4.72160209 16.4375 4.625 C10.40032047 4.33639925 5.51786021 3.64397468 0 1 C0 0.67 0 0.34 0 0 Z " fill="#32810C" transform="translate(134,185)"/>
<path d="M0 0 C-1.53079667 3.44429252 -3.61654706 6.09516673 -6 9 C-8.29013653 12.4352048 -8.17842973 13.985331 -8 18 C-9.32 17.67 -10.64 17.34 -12 17 C-12.69921875 15.31640625 -12.69921875 15.31640625 -13 13 C-11.70703125 10.52734375 -11.70703125 10.52734375 -9.8125 7.9375 C-9.20019531 7.08027344 -8.58789062 6.22304687 -7.95703125 5.33984375 C-3.49081803 0 -3.49081803 0 0 0 Z " fill="#2B7408" transform="translate(252,182)"/>
<path d="M0 0 C2 3 2 3 1.625 5.6875 C1.41875 6.450625 1.2125 7.21375 1 8 C0.34 8 -0.32 8 -1 8 C-4.39019075 11.55556591 -6.55491959 13.95575532 -7 19 C-7.33 19 -7.66 19 -8 19 C-8.05449838 17.27119018 -8.09301688 15.54187288 -8.125 13.8125 C-8.14820313 12.84957031 -8.17140625 11.88664063 -8.1953125 10.89453125 C-7.9913544 7.87187222 -7.26874632 5.73230015 -6 3 C-5.67 4.32 -5.34 5.64 -5 7 C-4.34 7 -3.68 7 -3 7 C-1.79371992 4.66785852 -0.8345262 2.50357861 0 0 Z " fill="#4D9A16" transform="translate(311,155)"/>
<path d="M0 0 C1.32 0.66 2.64 1.32 4 2 C2.7934375 3.175625 2.7934375 3.175625 1.5625 4.375 C-1.68453786 7.67791559 -1.68453786 7.67791559 -2.0625 12.125 C-2.041875 13.07375 -2.02125 14.0225 -2 15 C-1.34 15.33 -0.68 15.66 0 16 C-1.65 15.67 -3.3 15.34 -5 15 C-6.375 12.5 -6.375 12.5 -7 9 C-5.15873247 5.61921112 -2.71842352 2.71842352 0 0 Z " fill="#3B8C10" transform="translate(358,136)"/>
<path d="M0 0 C1 3 1 3 -0.0625 6.125 C-1.14453125 7.703125 -1.14453125 7.703125 -3 9 C-7.66486176 9.83935229 -12.26684708 9.98734451 -17 10 C-13.08370103 6.69035664 -10.07161404 5.05259914 -5 4 C-4.34 4.33 -3.68 4.66 -3 5 C-2.67 4.01 -2.34 3.02 -2 2 C-1.34 2 -0.68 2 0 2 C0 1.34 0 0.68 0 0 Z " fill="#226608" transform="translate(163,205)"/>
<path d="M0 0 C0.66 0 1.32 0 2 0 C1.42655063 2.86724686 1.1385485 3.8614515 -1 6 C-1.99 6 -2.98 6 -4 6 C-4.33 6.99 -4.66 7.98 -5 9 C-12.875 16 -12.875 16 -17 16 C-15.13058772 10.95258684 -10.83183323 8.09037692 -6.375 5.4375 C-3.88607817 4.06019451 -3.88607817 4.06019451 -1.8125 1.8125 C-1.214375 1.214375 -0.61625 0.61625 0 0 Z " fill="#CC8A3A" transform="translate(267,192)"/>
<path d="M0 0 C1.99965715 0.03703069 4.00056665 0.04760556 6 0 C5.34 1.32 4.68 2.64 4 4 C7.3 4.66 10.6 5.32 14 6 C14 6.33 14 6.66 14 7 C8.158256 7.35050464 4.1468192 7.16727335 -1 4 C-1 3.34 -1 2.68 -1 2 C-1.94875 2.04125 -2.8975 2.0825 -3.875 2.125 C-7 2 -7 2 -9 0 C-5.4554328 -1.1815224 -3.64313132 -0.64290553 0 0 Z " fill="#A2DC55" transform="translate(248,56)"/>
<path d="M0 0 C0.66 0.33 1.32 0.66 2 1 C2.37890625 3.14453125 2.37890625 3.14453125 2.5625 5.8125 C2.74644859 8.35399383 2.92689291 10.7122052 3.5546875 13.18359375 C4.1018617 15.41548851 3.69459629 16.83903378 3 19 C2.34 19 1.68 19 1 19 C-1.1500933 12.68410093 -2.15083538 6.45250614 0 0 Z " fill="#763512" transform="translate(276,324)"/>
<path d="M0 0 C-1 3 -1 3 -4 5 C-9.98472863 5.99313679 -16.06854762 6.48286309 -22 5 C-22 4.67 -22 4.34 -22 4 C-21.38511719 3.95101562 -20.77023437 3.90203125 -20.13671875 3.8515625 C-19.32847656 3.77679688 -18.52023437 3.70203125 -17.6875 3.625 C-16.88699219 3.55539063 -16.08648437 3.48578125 -15.26171875 3.4140625 C-12.72775559 3.10435574 -12.72775559 3.10435574 -10 1 C-6.61412577 0.10898047 -3.49256685 -0.09978762 0 0 Z " fill="#579D17" transform="translate(297,190)"/>
<path d="M0 0 C1.32 0 2.64 0 4 0 C8.59225513 13.44874715 8.59225513 13.44874715 8 21 C5.71172461 18.71172461 5.57744649 17.72877489 5 14.625 C4.18646214 10.28128891 3.16763194 7.16763194 0 4 C0 2.68 0 1.36 0 0 Z " fill="#8A3712" transform="translate(231,260)"/>
<path d="M0 0 C0.99 0 1.98 0 3 0 C3.67806317 3.1851837 4.34035151 6.37345613 5 9.5625 C5.19078125 10.45775391 5.3815625 11.35300781 5.578125 12.27539062 C6.60729907 17.29261421 7.22479032 21.87899545 7 27 C6.34 26.67 5.68 26.34 5 26 C4.48940963 22.72087517 4.16256207 19.47006016 3.87695312 16.16601562 C3.39598468 11.47332351 2.21890646 8.22620059 0 4 C0 2.68 0 1.36 0 0 Z M3 27 C3.99 27.495 3.99 27.495 5 28 C4.01 28.495 4.01 28.495 3 29 C3 28.34 3 27.68 3 27 Z " fill="#60B31C" transform="translate(314,161)"/>
<path d="M0 0 C2.06397833 0.47880578 4.02937645 1.0109877 6.015625 1.75390625 C13.96040293 4.62902693 21.68012206 4.27870559 30 4 C29.67 4.99 29.34 5.98 29 7 C10.89639309 7.80859783 10.89639309 7.80859783 3 3 C1.23828125 1.36328125 1.23828125 1.36328125 0 0 Z " fill="#194F05" transform="translate(331,241)"/>
<path d="M0 0 C0.66 0 1.32 0 2 0 C2.18175781 1.04800781 2.36351562 2.09601563 2.55078125 3.17578125 C2.80407058 4.55480095 3.05801096 5.93370119 3.3125 7.3125 C3.43044922 8.00279297 3.54839844 8.69308594 3.66992188 9.40429688 C4.36830966 13.11112435 4.86424977 15.70747672 8 18 C5.69 18 3.38 18 1 18 C0.67 12.06 0.34 6.12 0 0 Z " fill="#23A207" transform="translate(316,65)"/>
<path d="M0 0 C0.99 0.33 1.98 0.66 3 1 C-0.92160122 5.25535451 -5.42500969 6.78487423 -11.0859375 7.2578125 C-19.4018595 7.39876033 -19.4018595 7.39876033 -23 5 C-21.13794922 4.96132812 -21.13794922 4.96132812 -19.23828125 4.921875 C-17.59631972 4.86557918 -15.954394 4.80823217 -14.3125 4.75 C-13.08756836 4.72873047 -13.08756836 4.72873047 -11.83789062 4.70703125 C-6.50255549 4.49102578 -4.08189989 3.66537949 0 0 Z " fill="#69AF1D" transform="translate(225,200)"/>
<path d="M0 0 C0 0.66 0 1.32 0 2 C-0.61875 2.5775 -1.2375 3.155 -1.875 3.75 C-4.22138687 5.9177782 -4.22138687 5.9177782 -5.0625 9.1875 C-5.5265625 10.5796875 -5.5265625 10.5796875 -6 12 C-6.99 12.33 -7.98 12.66 -9 13 C-8.93976735 11.39479996 -8.85091401 9.79065673 -8.75 8.1875 C-8.70359375 7.29417969 -8.6571875 6.40085938 -8.609375 5.48046875 C-8 3 -8 3 -6.203125 1.17578125 C-4 0 -4 0 0 0 Z " fill="#284C05" transform="translate(299,222)"/>
<path d="M0 0 C1.08731034 2.09131869 1.97269375 3.88053516 2.5 6.1875 C2.665 6.785625 2.83 7.38375 3 8 C3.66 8.33 4.32 8.66 5 9 C5.33333333 10.66666667 5.66666667 12.33333333 6 14 C6.66 14.33 7.32 14.66 8 15 C7.67 15.99 7.34 16.98 7 18 C5 18 5 18 2.375 15.75 C-1.37333395 11.19923679 -0.40506643 5.56291231 0 0 Z " fill="#46A311" transform="translate(300,128)"/>
<path d="M0 0 C0 0.99 0 1.98 0 3 C-1.79421519 4.79421519 -4.39032926 4.21485363 -6.8125 4.25 C-7.87082031 4.27578125 -8.92914063 4.3015625 -10.01953125 4.328125 C-13.29387524 3.96764676 -14.60999318 3.19903775 -17 1 C-11.30494264 0.3583034 -5.73266804 -0.12462322 0 0 Z " fill="#6AAE1D" transform="translate(285,190)"/>
<path d="M0 0 C0.66 0.33 1.32 0.66 2 1 C1.67 1.66 1.34 2.32 1 3 C1.66 3 2.32 3 3 3 C2.77639942 8.59001458 1.46652565 11.20339831 -2.33203125 15.03125 C-4 16 -4 16 -6.19921875 15.65625 C-6.79347656 15.4396875 -7.38773437 15.223125 -8 15 C-7.50628906 14.50371094 -7.01257813 14.00742187 -6.50390625 13.49609375 C-2.27201535 9.00875672 -0.12980837 6.2308016 0 0 Z " fill="#703310" transform="translate(303,420)"/>
<path d="M0 0 C0.33 0.99 0.66 1.98 1 3 C3.41644308 4.4870419 5.98322664 5.38990022 8.625 6.4375 C12 8 12 8 14 11 C14.99 11.66 15.98 12.32 17 13 C14.03 12.505 14.03 12.505 11 12 C11 11.34 11 10.68 11 10 C10.01 10 9.02 10 8 10 C8 9.34 8 8.68 8 8 C5.69 8 3.38 8 1 8 C0.34 5.69 -0.32 3.38 -1 1 C-0.67 0.67 -0.34 0.34 0 0 Z " fill="#4EA714" transform="translate(289,88)"/>
<path d="M0 0 C0.33 0 0.66 0 1 0 C2.43023178 4.67209049 3.40380045 9.13103697 4 14 C4.66 14 5.32 14 6 14 C6 15.98 6 17.96 6 20 C3 16.25 3 16.25 3 14 C2.34 14 1.68 14 1 14 C0.67 14.66 0.34 15.32 0 16 C0 10.72 0 5.44 0 0 Z " fill="#48A412" transform="translate(290,97)"/>
<path d="M0 0 C0.66 0.33 1.32 0.66 2 1 C-0.39068208 3.7681582 -2.58839597 4.75941672 -6 6 C-7.0725 6.515625 -8.145 7.03125 -9.25 7.5625 C-13.37539764 9.36565394 -17.5444276 9.70700318 -22 10 C-19.58800485 8.39200324 -17.90451429 7.50219806 -15.25 6.5625 C-10.61338748 4.87490941 -6.0353795 3.10020514 -1.6875 0.75 C-1.130625 0.5025 -0.57375 0.255 0 0 Z " fill="#B16725" transform="translate(290,432)"/>
<path d="M0 0 C1.98 0.99 1.98 0.99 4 2 C4 4.64 4 7.28 4 10 C4.66 10 5.32 10 6 10 C6.33 12.31 6.66 14.62 7 17 C6.34 17 5.68 17 5 17 C2.54582388 11.326858 0.53753096 6.18160604 0 0 Z " fill="#67B41E" transform="translate(165,213)"/>
<path d="M0 0 C0.99 0.33 1.98 0.66 3 1 C2.67 1.99 2.34 2.98 2 4 C1.34 4 0.68 4 0 4 C-0.33 4.99 -0.66 5.98 -1 7 C-5.17442997 11.07503878 -8.32731724 12.75200979 -14 14 C-13.67 13.34 -13.34 12.68 -13 12 C-12.01 12 -11.02 12 -10 12 C-10 11.34 -10 10.68 -10 10 C-9.360625 9.896875 -8.72125 9.79375 -8.0625 9.6875 C-7.0415625 9.3471875 -7.0415625 9.3471875 -6 9 C-5.67 8.01 -5.34 7.02 -5 6 C-4.34 6 -3.68 6 -3 6 C-2.690625 5.38125 -2.38125 4.7625 -2.0625 4.125 C-1.375 2.75 -0.6875 1.375 0 0 Z " fill="#3D4B05" transform="translate(288,235)"/>
<path d="M0 0 C-1 3 -1 3 -3.65234375 4.38671875 C-4.73644531 4.81597656 -5.82054687 5.24523437 -6.9375 5.6875 C-8.01902344 6.12449219 -9.10054688 6.56148438 -10.21484375 7.01171875 C-13 8 -13 8 -15 8 C-14.0007455 5.44276805 -13.33618056 4.2102751 -10.9765625 2.734375 C-9.81253906 2.24710937 -9.81253906 2.24710937 -8.625 1.75 C-7.85414063 1.41484375 -7.08328125 1.0796875 -6.2890625 0.734375 C-4 0 -4 0 0 0 Z " fill="#561F0A" transform="translate(294,265)"/>
<path d="M0 0 C0.66 0 1.32 0 2 0 C1.92928 3.53599998 1.80836985 6.1041863 -0.625 8.80078125 C-2.37220916 10.27675028 -4.13784833 11.67266996 -6 13 C-6.66 12.67 -7.32 12.34 -8 12 C-7.34 11.34 -6.68 10.68 -6 10 C-5.71125 9.236875 -5.4225 8.47375 -5.125 7.6875 C-3.83813482 4.61332207 -2.24334792 2.45366179 0 0 Z " fill="#419710" transform="translate(315,63)"/>
<path d="M0 0 C0 0.66 0 1.32 0 2 C-0.64324219 1.84660156 -1.28648437 1.69320312 -1.94921875 1.53515625 C-5.89767537 0.84253326 -9.8131887 0.64199119 -13.8125 0.4375 C-14.60076172 0.39431641 -15.38902344 0.35113281 -16.20117188 0.30664062 C-18.13394215 0.20121679 -20.06695026 0.10016906 -22 0 C-21.67 -0.66 -21.34 -1.32 -21 -2 C-18.671875 -2.44921875 -18.671875 -2.44921875 -15.75 -2.6875 C-14.31914062 -2.81705078 -14.31914062 -2.81705078 -12.859375 -2.94921875 C-8.12041591 -3.03338059 -4.32639806 -1.8541706 0 0 Z " fill="#47820E" transform="translate(216,228)"/>
<path d="M0 0 C0.4375 2.125 0.4375 2.125 0 5 C-2.02800091 7.4358358 -4.2055956 9.48920412 -7 11 C-9.234375 10.6640625 -9.234375 10.6640625 -11 10 C-9.35718838 8.33035479 -7.71067239 6.6643536 -6.0625 5 C-5.14597656 4.071875 -4.22945312 3.14375 -3.28515625 2.1875 C-1 0 -1 0 0 0 Z " fill="#6DA418" transform="translate(237,193)"/>
<path d="M0 0 C2 1 2 1 3 3 C3.12537998 10.14665896 0.59398955 13.23613039 -4.28515625 18.3125 C-4.85105469 18.869375 -5.41695313 19.42625 -6 20 C-6.66 19.67 -7.32 19.34 -8 19 C-7.57847656 18.51789063 -7.15695312 18.03578125 -6.72265625 17.5390625 C-5.90087891 16.59160156 -5.90087891 16.59160156 -5.0625 15.625 C-4.51722656 14.99851562 -3.97195313 14.37203125 -3.41015625 13.7265625 C-1.02302556 10.80381522 -0.76966985 8.57632116 -0.4375 4.875 C-0.35371094 3.96492188 -0.26992188 3.05484375 -0.18359375 2.1171875 C-0.12300781 1.41851562 -0.06242187 0.71984375 0 0 Z " fill="#964C19" transform="translate(301,416)"/>
<path d="M0 0 C0.33 0.99 0.66 1.98 1 3 C0.01 3.33 -0.98 3.66 -2 4 C-2 4.66 -2 5.32 -2 6 C-4.1335282 7.78770907 -6.26844058 9.46872824 -8.5 11.125 C-9.43005859 11.82689453 -9.43005859 11.82689453 -10.37890625 12.54296875 C-11.91502517 13.70096609 -13.45698059 14.85121357 -15 16 C-15.66 15.67 -16.32 15.34 -17 15 C-15.8803014 13.99406757 -14.7540588 12.9954151 -13.625 12 C-12.99851562 11.443125 -12.37203125 10.88625 -11.7265625 10.3125 C-10 9 -10 9 -8 9 C-7.773125 8.38125 -7.54625 7.7625 -7.3125 7.125 C-5.61583557 4.3780195 -3.94748289 4.13364727 -1 3 C-0.67 2.01 -0.34 1.02 0 0 Z " fill="#723F0B" transform="translate(300,229)"/>
<path d="M0 0 C6.30742049 -0.49469965 6.30742049 -0.49469965 9.625 1.875 C10.40875 2.57625 11.1925 3.2775 12 4 C14.6794645 5.24016669 14.6794645 5.24016669 17 6 C17 6.33 17 6.66 17 7 C10.21017493 6.62964591 5.73115109 4.59523599 0 1 C0 0.67 0 0.34 0 0 Z " fill="#528112" transform="translate(310,228)"/>
<path d="M0 0 C4.29 0 8.58 0 13 0 C13 0.99 13 1.98 13 3 C8.71 3 4.42 3 0 3 C0 2.01 0 1.02 0 0 Z " fill="#A6D965" transform="translate(288,50)"/>
<path d="M0 0 C2.0625 0.4375 2.0625 0.4375 4 1 C-2.29718136 5.12206799 -7.46828078 6.82703776 -15 7 C-12.48397814 4.48397814 -10.32111136 3.99815529 -6.9375 2.9375 C-3.1759587 1.99691238 -3.1759587 1.99691238 0 0 Z " fill="#70320F" transform="translate(291,436)"/>
<path d="M0 0 C1.32 0.66 2.64 1.32 4 2 C3.60246179 3.46366342 3.18118616 4.9208935 2.75 6.375 C2.51796875 7.18710938 2.2859375 7.99921875 2.046875 8.8359375 C1 11 1 11 -3 13 C-2.01 8.71 -1.02 4.42 0 0 Z " fill="#773A0F" transform="translate(317,232)"/>
<path d="M0 0 C1.06283203 -0.02449219 2.12566406 -0.04898438 3.22070312 -0.07421875 C4.23970703 -0.07808594 5.25871094 -0.08195313 6.30859375 -0.0859375 C7.24372803 -0.09415527 8.1788623 -0.10237305 9.14233398 -0.11083984 C11.5625 0.375 11.5625 0.375 13.39086914 2.40380859 C13.97082642 3.37954834 13.97082642 3.37954834 14.5625 4.375 C13.63308594 4.04757813 12.70367187 3.72015625 11.74609375 3.3828125 C6.743183 1.95340943 1.7873398 2.15825644 -3.375 2.25 C-4.8300293 2.26353516 -4.8300293 2.26353516 -6.31445312 2.27734375 C-8.68906407 2.30073893 -11.06314776 2.33351824 -13.4375 2.375 C-9.93105233 -1.13144767 -4.74812231 0.00573791 0 0 Z " fill="#793D11" transform="translate(204.4375,229.625)"/>
<path d="M0 0 C0.66 0 1.32 0 2 0 C2.2475 0.61875 2.495 1.2375 2.75 1.875 C4.23250486 4.39525827 5.28387064 5.01231659 8 6 C8.99 6 9.98 6 11 6 C11.33 6.66 11.66 7.32 12 8 C8.04 7.67 4.08 7.34 0 7 C0 4.69 0 2.38 0 0 Z " fill="#3C870F" transform="translate(285,127)"/>
<path d="M0 0 C2.12534659 0.14069196 4.25027529 0.28770921 6.375 0.4375 C8.15003906 0.55931641 8.15003906 0.55931641 9.9609375 0.68359375 C13 1 13 1 15 2 C15 2.66 15 3.32 15 4 C4.44191344 4.3690205 4.44191344 4.3690205 0 2 C0 1.34 0 0.68 0 0 Z " fill="#1B5006" transform="translate(153,260)"/>
<path d="M0 0 C-2.27771895 2.80844958 -3.36197888 3.91735478 -7.015625 4.390625 C-8.61664063 4.32101563 -8.61664063 4.32101563 -10.25 4.25 C-11.32765625 4.21390625 -12.4053125 4.1778125 -13.515625 4.140625 C-14.33546875 4.09421875 -15.1553125 4.0478125 -16 4 C-10.36120881 1.17466884 -6.46064527 -0.25335864 0 0 Z " fill="#589614" transform="translate(229,204)"/>
<path d="M0 0 C2.79828356 0.38597015 3.8205884 0.80136573 5.75 2.9375 C7 5 7 5 7 7 C7.66 7 8.32 7 9 7 C8.67 8.32 8.34 9.64 8 11 C6.84852339 9.73427767 5.70400686 8.46222094 4.5625 7.1875 C3.92441406 6.47980469 3.28632813 5.77210938 2.62890625 5.04296875 C1 3 1 3 0 0 Z " fill="#519B17" transform="translate(176,189)"/>
<path d="M0 0 C1.62490954 -0.02698189 3.24994633 -0.04638757 4.875 -0.0625 C5.77992188 -0.07410156 6.68484375 -0.08570313 7.6171875 -0.09765625 C10 0 10 0 12 1 C12.625 3.5625 12.625 3.5625 13 6 C11.68 6.33 10.36 6.66 9 7 C9.33 6.01 9.66 5.02 10 4 C6.49223216 2.39644899 3.85645121 1.77963136 0 2 C0 1.34 0 0.68 0 0 Z " fill="#425F09" transform="translate(294,221)"/>
<path d="M0 0 C1.98 0.66 3.96 1.32 6 2 C5.67 2.99 5.34 3.98 5 5 C1.82757352 6.31035007 -0.55881664 7 -4 7 C-2.68 4.69 -1.36 2.38 0 0 Z " fill="#AB6E24" transform="translate(269,192)"/>
<path d="M0 0 C2.97272702 3.37809889 4.2979762 6.55384929 5 11 C3.125 13.9375 3.125 13.9375 1 16 C1.01740234 15.02160156 1.01740234 15.02160156 1.03515625 14.0234375 C1.08470994 9.2238086 0.99413751 4.72215315 0 0 Z " fill="#44AC10" transform="translate(378,172)"/>
<path d="M0 0 C1.32 1.32 2.64 2.64 4 4 C-1.625 8 -1.625 8 -5 8 C-5 6.68 -5 5.36 -5 4 C-3.35 3.34 -1.7 2.68 0 2 C0 1.34 0 0.68 0 0 Z " fill="#874812" transform="translate(306,224)"/>
<path d="M0 0 C0.79921875 0.00644531 1.5984375 0.01289063 2.421875 0.01953125 C3.246875 0.03628906 4.071875 0.05304688 4.921875 0.0703125 C5.76234375 0.07933594 6.6028125 0.08835938 7.46875 0.09765625 C9.53658104 0.12115433 11.60426495 0.15702342 13.671875 0.1953125 C13.671875 0.5253125 13.671875 0.8553125 13.671875 1.1953125 C12.47949219 1.24429688 11.28710938 1.29328125 10.05859375 1.34375 C8.49216432 1.41878854 6.92575921 1.4943359 5.359375 1.5703125 C4.57369141 1.60125 3.78800781 1.6321875 2.97851562 1.6640625 C1.8425293 1.72207031 1.8425293 1.72207031 0.68359375 1.78125 C-0.01290283 1.8126709 -0.70939941 1.8440918 -1.42700195 1.87646484 C-3.65345239 2.11649503 -3.65345239 2.11649503 -6.328125 4.1953125 C-6.988125 5.1853125 -7.648125 6.1753125 -8.328125 7.1953125 C-8.328125 5.5453125 -8.328125 3.8953125 -8.328125 2.1953125 C-5.40988256 0.52856929 -3.35218121 -0.0478883 0 0 Z " fill="#485909" transform="translate(196.328125,228.8046875)"/>
<path d="M0 0 C0.99 0.33 1.98 0.66 3 1 C-0.02299093 4.88670262 -2.45945591 7.84921596 -7 10 C-7.99 10 -8.98 10 -10 10 C-6.66666667 6.66666667 -3.33333333 3.33333333 0 0 Z " fill="#BD742B" transform="translate(263,198)"/>
<path d="M0 0 C1.54627671 2.31941506 2.86182828 4.52979752 4.125 7 C4.47820312 7.680625 4.83140625 8.36125 5.1953125 9.0625 C6 11 6 11 6 14 C5.01 14 4.02 14 3 14 C-0.44419134 4.58997722 -0.44419134 4.58997722 0 0 Z " fill="#7B5510" transform="translate(249,218)"/>
<path d="M0 0 C1.41377341 2.63904371 2.37240135 5.07120629 3 8 C1.02 8.33 -0.96 8.66 -3 9 C-2.67 7.02 -2.34 5.04 -2 3 C-1.34 3 -0.68 3 0 3 C0 2.01 0 1.02 0 0 Z " fill="#4BAA11" transform="translate(374,94)"/>
<path d="M0 0 C-0.17625835 2.37948772 -0.69719773 3.70225849 -2.40234375 5.37890625 C-3.90649092 6.62115486 -5.45129851 7.81376056 -7 9 C-7.33 8.01 -7.66 7.02 -8 6 C-7.0479279 4.99403703 -6.08812654 3.99538437 -5.125 3 C-4.59132813 2.443125 -4.05765625 1.88625 -3.5078125 1.3125 C-2 0 -2 0 0 0 Z " fill="#72440D" transform="translate(306,254)"/>
<path d="M0 0 C0.66 0.33 1.32 0.66 2 1 C-0.475 6.94 -0.475 6.94 -3 13 C-3.66 13 -4.32 13 -5 13 C-3.91343356 8.06866002 -2.8990762 4.21683811 0 0 Z " fill="#B16523" transform="translate(250,210)"/>
<path d="M0 0 C0.99 0 1.98 0 3 0 C3 0.66 3 1.32 3 2 C3.99 2.33 4.98 2.66 6 3 C6.6875 5.0625 6.6875 5.0625 7 7 C7.66 7 8.32 7 9 7 C9.33 8.32 9.66 9.64 10 11 C9.34 11 8.68 11 8 11 C6.59765625 9.3203125 6.59765625 9.3203125 5.0625 7.125 C3.10052062 4.32503965 1.90905857 2.93937238 -1 1 C-0.67 0.67 -0.34 0.34 0 0 Z " fill="#67B11F" transform="translate(175,185)"/>
<path d="M0 0 C0.66 0.33 1.32 0.66 2 1 C2 3.31 2 5.62 2 8 C2.66 8.33 3.32 8.66 4 9 C2.35 8.67 0.7 8.34 -1 8 C-1.625 5.125 -1.625 5.125 -2 2 C-1.34 1.34 -0.68 0.68 0 0 Z " fill="#34770B" transform="translate(354,143)"/>
<path d="M0 0 C0.8968714 2.6906142 1.27859126 4.88897096 1.5625 7.6875 C1.64628906 8.49574219 1.73007812 9.30398438 1.81640625 10.13671875 C1.87699219 10.75160156 1.93757813 11.36648438 2 12 C1.01 12.33 0.02 12.66 -1 13 C-1.02686553 11.02090602 -1.04633375 9.04171029 -1.0625 7.0625 C-1.07410156 5.96035156 -1.08570313 4.85820312 -1.09765625 3.72265625 C-1 1 -1 1 0 0 Z " fill="#642B0E" transform="translate(278,330)"/>
<path d="M0 0 C0.66 0.33 1.32 0.66 2 1 C0.87548273 3.9719385 -0.22293791 6.33440687 -2 9 C-2.99 9 -3.98 9 -5 9 C-4.34 7.02 -3.68 5.04 -3 3 C-2.01 3 -1.02 3 0 3 C0 2.01 0 1.02 0 0 Z " fill="#315C08" transform="translate(187,244)"/>
<path d="M0 0 C0.58203125 1.859375 0.58203125 1.859375 1 4 C-0.3125 6.25 -0.3125 6.25 -2 8 C-2.66 8 -3.32 8 -4 8 C-4.66 9.32 -5.32 10.64 -6 12 C-6 8.36804504 -5.04546845 7.25286089 -3 4.3125 C-2.443125 3.50425781 -1.88625 2.69601563 -1.3125 1.86328125 C-0.879375 1.24839844 -0.44625 0.63351563 0 0 Z " fill="#894314" transform="translate(315,238)"/>
<path d="M0 0 C0.66 0.33 1.32 0.66 2 1 C1.72285156 1.50789062 1.44570313 2.01578125 1.16015625 2.5390625 C-1.0334683 6.7077298 -2.52413155 10.24131553 -3 15 C-3.33 15 -3.66 15 -4 15 C-4.51211281 8.59858988 -4.11888494 5.01989102 0 0 Z " fill="#377C0D" transform="translate(257,212)"/>
<path d="M0 0 C1.32 0.33 2.64 0.66 4 1 C2.375 3 2.375 3 0 5 C-3.25 5.25 -3.25 5.25 -6 5 C-5.67 4.01 -5.34 3.02 -5 2 C-3.35 2 -1.7 2 0 2 C0 1.34 0 0.68 0 0 Z " fill="#4F9614" transform="translate(293,190)"/>
<path d="M0 0 C0.99 0 1.98 0 3 0 C3.33 1.32 3.66 2.64 4 4 C5.98 4 7.96 4 10 4 C10 4.66 10 5.32 10 6 C7.69 6 5.38 6 3 6 C3 5.34 3 4.68 3 4 C2.01 3.67 1.02 3.34 0 3 C0 2.01 0 1.02 0 0 Z " fill="#3D9111" transform="translate(115,165)"/>
<path d="M0 0 C-5.625 5 -5.625 5 -9 5 C-8.67 3.35 -8.34 1.7 -8 0 C-4.94736336 -0.98120464 -3.05263664 -0.98120464 0 0 Z " fill="#A5E455" transform="translate(333,83)"/>
<path d="M0 0 C2.94702738 1.10513527 3.87883653 2.29244382 5.5 4.9375 C4.51 5.2675 3.52 5.5975 2.5 5.9375 C2.5 5.2775 2.5 4.6175 2.5 3.9375 C-0.14 3.6075 -2.78 3.2775 -5.5 2.9375 C-3.69216096 0.55876443 -3.06218297 -0.07655457 0 0 Z " fill="#95CF3A" transform="translate(306.5,52.0625)"/>
<path d="M0 0 C0.33 0.66 0.66 1.32 1 2 C1.66 2 2.32 2 3 2 C3 4.64 3 7.28 3 10 C2.01 10 1.02 10 0 10 C0 6.7 0 3.4 0 0 Z " fill="#6F2E0E" transform="translate(272,297)"/>
<path d="M0 0 C0.66 0 1.32 0 2 0 C5.00559652 5.00932754 5.29341888 8.32723489 5 14 C2.71194223 11.71194223 2.54417401 10.66724344 1.9375 7.5625 C1.41445483 4.93862879 0.84906993 2.54720979 0 0 Z " fill="#53250C" transform="translate(234,267)"/>
<path d="M0 0 C1.32 0.66 2.64 1.32 4 2 C4 3.32 4 4.64 4 6 C4.66 6.33 5.32 6.66 6 7 C4.35 7.33 2.7 7.66 1 8 C0.34 5.69 -0.32 3.38 -1 1 C-0.67 0.67 -0.34 0.34 0 0 Z " fill="#53B117" transform="translate(136,239)"/>
<path d="M0 0 C1.32 0 2.64 0 4 0 C4 0.66 4 1.32 4 2 C6.97 2.495 6.97 2.495 10 3 C10 3.66 10 4.32 10 5 C10.66 5.33 11.32 5.66 12 6 C7.01208429 5.52496041 3.9767259 4.0298864 0 1 C0 0.67 0 0.34 0 0 Z " fill="#924C1B" transform="translate(208,435)"/>
<path d="M0 0 C2.45823172 3.68734758 3.01242616 6.69699971 4 11 C3.34 11 2.68 11 2 11 C1.67 11.66 1.34 12.32 1 13 C0.63901937 11.02206479 0.28638652 9.04260427 -0.0625 7.0625 C-0.25972656 5.96035156 -0.45695312 4.85820312 -0.66015625 3.72265625 C-0.77230469 2.82417969 -0.88445312 1.92570312 -1 1 C-0.67 0.67 -0.34 0.34 0 0 Z " fill="#63250C" transform="translate(285,376)"/>
<path d="M0 0 C2.67898799 2.67898799 2.65747987 4.2322786 3 8 C2.79307543 11.02011336 2.43268575 14.00448327 2 17 C1.34 16.67 0.68 16.34 0 16 C0.04125 14.88625 0.0825 13.7725 0.125 12.625 C0.41121859 8.95633975 0.41121859 8.95633975 -2 7 C-1.01 7 -0.02 7 1 7 C0.67 4.69 0.34 2.38 0 0 Z " fill="#8D5716" transform="translate(238,241)"/>
<path d="M0 0 C1.32 0 2.64 0 4 0 C3.67 2.31 3.34 4.62 3 7 C2.34 7 1.68 7 1 7 C-1 4 -1 4 -0.625 1.8125 C-0.41875 1.214375 -0.2125 0.61625 0 0 Z " fill="#D09447" transform="translate(238,203)"/>
<path d="M0 0 C0.33 2.64 0.66 5.28 1 8 C-0.32 7.67 -1.64 7.34 -3 7 C-3.6875 5.1875 -3.6875 5.1875 -4 3 C-1.64285714 0 -1.64285714 0 0 0 Z " fill="#285E06" transform="translate(243,192)"/>
<path d="M0 0 C4.38889325 0.66498383 7.9811485 2.18757677 12 4 C12 4.33 12 4.66 12 5 C6.72209903 5.50265724 4.13774748 4.25108731 0 1 C0 0.67 0 0.34 0 0 Z " fill="#944916" transform="translate(221,255)"/>
<path d="M0 0 C1.29922995 2.5984599 0.81286289 3.75961451 0.1875 6.5625 C0.01605469 7.36816406 -0.15539062 8.17382812 -0.33203125 9.00390625 C-1 11 -1 11 -3 12 C-3.36923077 4.61538462 -3.36923077 4.61538462 -1.5 1.5 C-1.005 1.005 -0.51 0.51 0 0 Z " fill="#458D11" transform="translate(257,217)"/>
<path d="M0 0 C0.99 0.33 1.98 0.66 3 1 C2.21625 1.9075 1.4325 2.815 0.625 3.75 C-1.30052496 6.05190236 -2.82205741 8.21577207 -4 11 C-4.8125 8.875 -4.8125 8.875 -5 6 C-3.55576519 3.69892439 -1.89127865 1.98353614 0 0 Z " fill="#3A7D10" transform="translate(374,102)"/>
<path d="M0 0 C6.75 1.625 6.75 1.625 9 5 C9.99 5.66 10.98 6.32 12 7 C9.03 6.505 9.03 6.505 6 6 C6 5.34 6 4.68 6 4 C5.01 4 4.02 4 3 4 C3 3.34 3 2.68 3 2 C2.01 1.67 1.02 1.34 0 1 C0 0.67 0 0.34 0 0 Z " fill="#3FA00E" transform="translate(294,94)"/>
<path d="M0 0 C2.4294516 3.6441774 2.16179575 5.71241272 2 10 C1.01 10.495 1.01 10.495 0 11 C-0.19491452 9.54263913 -0.38069358 8.08405407 -0.5625 6.625 C-0.66691406 5.81289063 -0.77132813 5.00078125 -0.87890625 4.1640625 C-1 2 -1 2 0 0 Z " fill="#612B0C" transform="translate(275,312)"/>
<path d="M0 0 C0.33 0.99 0.66 1.98 1 3 C-0.8125 5.6875 -0.8125 5.6875 -3 8 C-3.66 8 -4.32 8 -5 8 C-4.67 6.35 -4.34 4.7 -4 3 C-3.34 3 -2.68 3 -2 3 C-2 2.34 -2 1.68 -2 1 C-1.34 0.67 -0.68 0.34 0 0 Z " fill="#8D5416" transform="translate(241,294)"/>
<path d="M0 0 C0.33 0 0.66 0 1 0 C1.2919519 5.54708616 0.19088986 10.61972975 -1 16 C-1.33 16 -1.66 16 -2 16 C-2.05449838 14.27119018 -2.09301688 12.54187288 -2.125 10.8125 C-2.14820313 9.84957031 -2.17140625 8.88664063 -2.1953125 7.89453125 C-1.9913544 4.87187222 -1.26874632 2.73230015 0 0 Z " fill="#63AD1F" transform="translate(305,158)"/>
<path d="M0 0 C0.99 0.495 0.99 0.495 2 1 C3.37634409 7.99641577 3.37634409 7.99641577 2.0625 11.5 C1.711875 11.995 1.36125 12.49 1 13 C-0.10228696 8.59085217 -0.07654536 4.51617599 0 0 Z " fill="#4EAB14" transform="translate(298,115)"/>
<path d="M0 0 C0.33 0.66 0.66 1.32 1 2 C0.67 2.99 0.34 3.98 0 5 C-2.31 5 -4.62 5 -7 5 C-6.3125 3.0625 -6.3125 3.0625 -5 1 C-2.375 0.25 -2.375 0.25 0 0 Z " fill="#56B017" transform="translate(307,99)"/>
<path d="M0 0 C2 3 2 3 1.6796875 5.19140625 C1.41414063 5.97386719 1.14859375 6.75632812 0.875 7.5625 C0.49988281 8.74005859 0.49988281 8.74005859 0.1171875 9.94140625 C-1.2294135 12.42273047 -2.40709283 13.00479704 -5 14 C-4.72285156 13.40832031 -4.44570313 12.81664063 -4.16015625 12.20703125 C-1.44225847 6.30953569 -1.44225847 6.30953569 0 0 Z " fill="#46A411" transform="translate(314,83)"/>
<path d="M0 0 C1.46080933 0.61919078 2.91857455 1.24556692 4.375 1.875 C5.18710938 2.22304688 5.99921875 2.57109375 6.8359375 2.9296875 C9 4 9 4 11 6 C6.64477147 5.49357808 3.55760365 4.61588503 0 2 C0 1.34 0 0.68 0 0 Z " fill="#2B5F0A" transform="translate(148,255)"/>
<path d="M0 0 C0.66 0.66 1.32 1.32 2 2 C0.02 4.31 -1.96 6.62 -4 9 C-4.66 8.01 -5.32 7.02 -6 6 C-2.25 1.125 -2.25 1.125 0 0 Z " fill="#58200B" transform="translate(313,245)"/>
<path d="M0 0 C1.79133978 -0.05391993 3.58313899 -0.09275571 5.375 -0.125 C6.37273437 -0.14820313 7.37046875 -0.17140625 8.3984375 -0.1953125 C11 0 11 0 13 2 C10 3 10 3 7 2 C4.66993089 1.64456573 2.33672984 1.3086247 0 1 C0 0.67 0 0.34 0 0 Z " fill="#401708" transform="translate(188,244)"/>
<path d="M0 0 C0.66 0.33 1.32 0.66 2 1 C-1.96 4.465 -1.96 4.465 -6 8 C-6 7.01 -6 6.02 -6 5 C-4.68 4.34 -3.36 3.68 -2 3 C-2 2.34 -2 1.68 -2 1 C-1.34 0.67 -0.68 0.34 0 0 Z " fill="#975316" transform="translate(300,232)"/>
<path d="M0 0 C3.12270126 2.51830747 3.94523098 3.7261549 4.75 7.75 C4.8325 8.8225 4.915 9.895 5 11 C4.67 10.01 4.34 9.02 4 8 C3.34 8 2.68 8 2 8 C-0.1519437 4.77208445 -0.20086443 3.71599191 0 0 Z " fill="#9B531D" transform="translate(281,379)"/>
<path d="M0 0 C0.99 0.33 1.98 0.66 3 1 C3 4.3 3 7.6 3 11 C1.04783565 7.09567131 0.49360009 4.27786748 0 0 Z " fill="#6EBC22" transform="translate(165,213)"/>
<path d="M0 0 C3.60296594 -0.41176754 4.78402067 -0.1535853 7.8125 2 C8.534375 2.66 9.25625 3.32 10 4 C7 5 7 5 3.875 3.6875 C1 2 1 2 0 0 Z " fill="#4E9514" transform="translate(189,203)"/>
<path d="M0 0 C0 0.66 0 1.32 0 2 C-4.455 3.485 -4.455 3.485 -9 5 C-9 4.34 -9 3.68 -9 3 C-3.375 0 -3.375 0 0 0 Z " fill="#234A08" transform="translate(178,258)"/>
<path d="M0 0 C0.66 0 1.32 0 2 0 C2.33 2.64 2.66 5.28 3 8 C2.01 8 1.02 8 0 8 C0 5.36 0 2.72 0 0 Z " fill="#1B7907" transform="translate(316,65)"/>
<path d="M0 0 C0.66 0 1.32 0 2 0 C2 0.66 2 1.32 2 2 C1.34 2 0.68 2 0 2 C-0.0825 2.598125 -0.165 3.19625 -0.25 3.8125 C-1.20455872 6.5966296 -2.57132271 7.43311142 -5 9 C-4.42676569 5.13066838 -2.61046448 2.84777943 0 0 Z " fill="#43A713" transform="translate(315,63)"/>
<path d="M0 0 C1.36125 0.12375 1.36125 0.12375 2.75 0.25 C2.42 0.91 2.09 1.57 1.75 2.25 C-0.31640625 2.8828125 -0.31640625 2.8828125 -2.8125 3.375 C-4.05193359 3.62636719 -4.05193359 3.62636719 -5.31640625 3.8828125 C-5.95449219 4.00398438 -6.59257812 4.12515625 -7.25 4.25 C-4.83923194 1.28290085 -3.90322061 0.30024774 0 0 Z " fill="#9F551C" transform="translate(288.25,435.75)"/>
<path d="M0 0 C2 3 2 3 2 5 C2.66 5.33 3.32 5.66 4 6 C3.67 6.99 3.34 7.98 3 9 C2.34 9 1.68 9 1 9 C-0.61949011 6.42786866 -1.04408751 5.32330841 -0.625 2.25 C-0.41875 1.5075 -0.2125 0.765 0 0 Z " fill="#5AB319" transform="translate(304,137)"/>
<path d="M0 0 C0.66 0 1.32 0 2 0 C2.33 1.98 2.66 3.96 3 6 C2.34 6 1.68 6 1 6 C0.67 6.66 0.34 7.32 0 8 C0 5.36 0 2.72 0 0 Z " fill="#3B980E" transform="translate(290,105)"/>
<path d="M0 0 C1.32 0 2.64 0 4 0 C3.67 1.65 3.34 3.3 3 5 C1.68 5.33 0.36 5.66 -1 6 C-0.67 4.02 -0.34 2.04 0 0 Z " fill="#94D63F" transform="translate(321,83)"/>
<path d="M0 0 C2.7839183 1.39195915 2.97898997 3.15575779 4 6 C2.35 5.67 0.7 5.34 -1 5 C-0.67 3.35 -0.34 1.7 0 0 Z " fill="#734011" transform="translate(287,387)"/>
<path d="M0 0 C0.33 0.99 0.66 1.98 1 3 C0.01 4.485 0.01 4.485 -1 6 C-4.125 6.1875 -4.125 6.1875 -7 6 C-6.34 5.34 -5.68 4.68 -5 4 C-4.34 4.33 -3.68 4.66 -3 5 C-2.67 4.01 -2.34 3.02 -2 2 C-1.34 2 -0.68 2 0 2 C0 1.34 0 0.68 0 0 Z " fill="#185A06" transform="translate(163,205)"/>
<path d="M0 0 C0.33 0.99 0.66 1.98 1 3 C-0.65 4.65 -2.3 6.3 -4 8 C-4.66 7.67 -5.32 7.34 -6 7 C-4.02 4.69 -2.04 2.38 0 0 Z " fill="#C1E625" transform="translate(156,72)"/>
<path d="M0 0 C1.32 0 2.64 0 4 0 C4.66 1.32 5.32 2.64 6 4 C3.03 3.505 3.03 3.505 0 3 C0 2.01 0 1.02 0 0 Z " fill="#62230C" transform="translate(227,260)"/>
<path d="M0 0 C2.76276177 0.52268466 5.3260876 1.10869587 8 2 C8 2.99 8 3.98 8 5 C7.34 5 6.68 5 6 5 C6 4.34 6 3.68 6 3 C5.195625 2.87625 4.39125 2.7525 3.5625 2.625 C2.716875 2.41875 1.87125 2.2125 1 2 C0.67 1.34 0.34 0.68 0 0 Z " fill="#112E05" transform="translate(145,257)"/>
<path d="M0 0 C3.3125 -0.25 3.3125 -0.25 7 0 C7.99 1.32 8.98 2.64 10 4 C6.7 3.01 3.4 2.02 0 1 C0 0.67 0 0.34 0 0 Z " fill="#5A2E08" transform="translate(209,230)"/>
<path d="M0 0 C0.99 0.99 1.98 1.98 3 3 C-2.41538462 4.23076923 -2.41538462 4.23076923 -5.375 3.0625 C-5.91125 2.711875 -6.4475 2.36125 -7 2 C-4.69 1.34 -2.38 0.68 0 0 Z " fill="#428B0E" transform="translate(303,191)"/>
<path d="M0 0 C2.4375 0.375 2.4375 0.375 5 1 C5.33 1.66 5.66 2.32 6 3 C5.34 3 4.68 3 4 3 C3.67 3.66 3.34 4.32 3 5 C1.5 3.625 1.5 3.625 0 2 C0 1.34 0 0.68 0 0 Z " fill="#173B06" transform="translate(120,175)"/>
<path d="M0 0 C0.66 0 1.32 0 2 0 C1.64950425 3.24208567 1.43778819 4.61527704 -1.0625 6.8125 C-1.701875 7.204375 -2.34125 7.59625 -3 8 C-1.125 1.125 -1.125 1.125 0 0 Z " fill="#87CF34" transform="translate(319,85)"/>
</svg>
